<?xml version="1.0" standalone="no"?>
<!DOCTYPE svg PUBLIC "-//W3C//DTD SVG 20010904//EN"
 "http://www.w3.org/TR/2001/REC-SVG-20010904/DTD/svg10.dtd">
<svg version="1.0" xmlns="http://www.w3.org/2000/svg"
 width="730.000000pt" height="730.000000pt" viewBox="0 0 730.000000 730.000000"
 preserveAspectRatio="xMidYMid meet">
<metadata>
Created by potrace 1.11, written by Peter Selinger 2001-2013
</metadata>
<g transform="translate(0.000000,730.000000) scale(0.100000,-0.100000)"
fill="#000000" stroke="none">
<path d="M5767 6619 c-53 -41 -75 -104 -92 -266 -9 -81 -19 -172 -22 -200 -5
-49 -4 -53 15 -53 35 0 51 11 100 70 l48 57 0 -50 c0 -87 53 -94 119 -15 24
29 26 33 10 36 -9 2 -22 -1 -28 -7 -22 -22 -37 -12 -37 27 0 35 4 41 53 73 45
29 52 38 50 63 -6 80 -113 46 -143 -46 -12 -34 -28 -55 -63 -82 -59 -45 -72
-46 -63 -3 4 17 13 77 20 132 8 55 20 118 28 140 11 35 17 40 48 43 47 5 72
28 68 66 -3 28 -6 31 -44 34 -29 2 -47 -3 -67 -19z m173 -278 c0 -15 -31 -42
-41 -35 -13 8 8 44 26 44 8 0 15 -4 15 -9z"/>
<path d="M1791 6616 c-38 -21 -69 -84 -83 -165 -11 -68 -15 -75 -43 -87 -58
-25 -84 -56 -100 -119 -35 -136 -10 -202 50 -131 17 20 33 36 38 36 4 0 7 -16
7 -35 0 -29 4 -35 21 -35 25 0 79 56 96 99 12 33 4 41 -17 16 -7 -8 -19 -15
-27 -15 -13 0 -14 10 -9 58 11 92 28 170 50 236 19 55 24 61 48 61 16 1 32 5
37 10 14 16 21 49 13 62 -12 19 -55 24 -81 9z m-106 -338 c-8 -40 -36 -82 -59
-86 -12 -3 -16 4 -16 33 0 47 25 85 57 85 22 0 24 -3 18 -32z"/>
<path d="M1858 6504 c-13 -29 -2 -57 25 -62 21 -4 40 34 33 64 -9 33 -43 32
-58 -2z"/>
<path d="M5284 6373 c-9 -15 -26 -35 -37 -44 -29 -23 -13 -43 18 -23 23 15 25
15 31 0 8 -21 0 -76 -20 -138 -13 -42 -13 -49 0 -62 29 -30 64 10 64 73 0 15
11 51 25 79 20 42 30 52 50 52 30 0 59 40 50 70 -10 33 -42 24 -70 -20 -26
-41 -47 -47 -38 -10 6 24 -13 50 -37 50 -10 0 -26 -12 -36 -27z"/>
<path d="M5517 6373 c-14 -16 -37 -53 -51 -83 -21 -46 -24 -65 -19 -109 5 -48
23 -81 42 -81 5 0 23 10 41 23 80 53 128 205 80 255 -28 30 -61 28 -93 -5z
m59 -69 c9 -35 -12 -101 -37 -115 -60 -32 -68 58 -11 124 22 24 41 21 48 -9z"/>
<path d="M1962 6358 c-48 -37 -54 -58 -15 -55 23 2 28 -3 40 -43 7 -24 14 -75
15 -112 1 -47 5 -68 14 -68 13 0 84 87 123 150 28 46 29 120 2 144 -20 19 -22
18 -49 -33 -9 -17 -9 -28 -2 -35 15 -15 12 -58 -6 -84 -22 -31 -34 -27 -34 11
0 30 -30 140 -41 152 -3 2 -24 -10 -47 -27z"/>
<path d="M1821 6354 c-36 -30 -39 -44 -10 -51 18 -5 20 -11 15 -42 -17 -91
-18 -141 -6 -156 19 -22 24 -20 70 35 40 48 49 78 15 50 -28 -23 -39 2 -26 54
6 25 11 65 11 90 0 39 -3 46 -19 46 -11 0 -33 -12 -50 -26z"/>
<path d="M3413 6299 c-286 -33 -614 -146 -873 -299 -612 -362 -1022 -998
-1100 -1708 -18 -160 -8 -473 19 -627 53 -299 170 -593 339 -850 688 -1050
2093 -1339 3140 -645 339 225 603 527 782 895 105 215 165 406 207 660 24 150
24 482 -1 645 -79 519 -304 957 -677 1315 -356 342 -823 562 -1301 614 -112
13 -429 12 -535 0z m552 -194 c147 -21 237 -41 360 -81 119 -39 349 -145 459
-213 l69 -43 74 52 c41 29 76 50 79 47 3 -2 -7 -40 -21 -83 -13 -44 -25 -82
-25 -85 0 -3 49 -49 109 -102 483 -428 745 -1097 681 -1738 -9 -88 -42 -269
-65 -360 -6 -23 1 -30 71 -80 l77 -54 -96 -3 -96 -3 -19 -52 c-115 -305 -336
-615 -590 -828 -321 -268 -707 -438 -1092 -479 -58 -6 -124 -13 -147 -16 l-42
-5 -27 -82 c-14 -45 -30 -85 -33 -90 -4 -4 -20 33 -36 82 l-28 90 -46 5 c-25
3 -77 8 -116 11 -182 16 -422 81 -622 169 -472 206 -888 638 -1074 1111 -13
33 -27 65 -32 72 -6 8 -43 13 -100 15 l-91 3 76 57 76 57 -18 68 c-53 201 -75
522 -51 734 53 458 247 872 565 1206 54 57 127 126 162 154 54 43 63 55 58 73
-39 118 -51 165 -41 160 7 -4 42 -29 79 -56 37 -26 70 -48 74 -48 3 0 24 13
47 29 69 47 205 117 322 166 175 73 365 123 570 148 83 11 409 5 500 -8z"/>
<path d="M2490 5705 c0 -11 420 -1307 429 -1323 5 -9 25 1 69 34 34 25 62 49
62 52 0 4 -61 191 -135 417 -74 225 -132 411 -130 413 2 2 316 -224 699 -502
383 -278 700 -506 704 -506 7 0 52 124 52 143 0 3 -379 282 -842 618 -464 337
-858 623 -875 637 -18 13 -33 21 -33 17z"/>
<path d="M4317 5297 l-567 -412 27 -23 c16 -12 45 -34 65 -48 l38 -27 67 50
c372 270 644 465 647 462 1 -2 -118 -375 -266 -829 -147 -454 -268 -826 -268
-828 0 -2 36 -2 81 0 l81 3 334 1029 c184 566 333 1030 332 1032 -2 1 -259
-183 -571 -409z"/>
<path d="M2619 4062 l-876 -637 700 -3 c385 -1 702 0 705 2 2 3 -7 38 -19 78
l-24 73 -439 5 -440 5 685 497 c376 273 692 503 702 510 17 12 13 18 -48 61
-36 26 -66 47 -68 47 -1 -1 -396 -288 -878 -638z"/>
<path d="M4467 4175 l-25 -75 354 -257 355 -258 -866 -3 c-654 -1 -865 -5
-865 -14 0 -6 10 -42 22 -80 l22 -68 1089 0 1089 0 -571 415 c-315 228 -573
415 -575 415 -2 0 -16 -34 -29 -75z"/>
<path d="M3090 4128 c-30 -21 -59 -43 -63 -48 -5 -4 141 -470 324 -1034 183
-564 337 -1022 340 -1018 8 7 429 1299 429 1313 0 5 -35 9 -78 9 l-78 0 -135
-415 c-74 -228 -137 -415 -140 -415 -3 0 -124 366 -269 813 -145 446 -266 817
-269 823 -4 8 -25 -2 -61 -28z"/>
<path d="M799 3278 c-31 -29 -37 -43 -52 -123 -31 -163 -46 -332 -34 -365 16
-41 47 -39 85 5 55 62 82 150 73 243 -2 22 -51 13 -78 -15 l-26 -28 6 30 c12
70 46 167 63 180 11 8 29 15 41 15 30 0 60 55 42 76 -22 26 -82 17 -120 -18z
m21 -332 c0 -33 -6 -52 -23 -72 -45 -51 -62 -3 -27 74 26 57 50 56 50 -2z"/>
<path d="M1030 3297 c-29 -15 -75 -79 -89 -127 -13 -46 -45 -376 -38 -395 10
-25 60 2 110 60 66 76 62 105 -6 45 -19 -16 -38 -30 -42 -30 -4 0 -4 24 -1 53
22 170 25 185 38 240 12 49 37 73 64 63 19 -7 64 37 64 62 0 40 -49 55 -100
29z"/>
<path d="M6319 3237 c-74 -100 -84 -117 -67 -117 8 0 19 5 26 12 20 20 26 0
14 -54 -12 -57 -33 -161 -53 -272 -13 -69 -28 -96 -55 -96 -13 0 -20 -21 -9
-32 6 -6 153 17 161 25 12 12 -6 37 -26 37 -24 0 -24 9 -9 117 l11 78 64 58
c51 47 67 68 79 109 19 64 19 89 1 114 -14 18 -16 18 -55 -20 -22 -22 -43 -37
-46 -34 -4 3 6 29 20 58 26 52 27 80 3 80 -7 0 -34 -28 -59 -63z m85 -129 c5
-28 1 -37 -28 -67 -30 -30 -36 -32 -42 -18 -9 23 2 59 27 90 27 35 35 34 43
-5z"/>
<path d="M6187 3218 c-58 -55 -61 -68 -28 -130 37 -69 29 -93 -29 -83 -32 5
-40 3 -54 -17 -9 -12 -16 -26 -16 -30 0 -16 105 -8 130 9 56 39 63 74 29 154
-25 56 -18 73 32 84 38 9 36 39 -2 43 -19 2 -37 -7 -62 -30z"/>
<path d="M6605 3233 c-84 -25 -126 -90 -127 -194 -1 -106 26 -117 84 -34 17
25 36 45 41 45 4 0 5 -24 2 -54 -7 -56 6 -82 24 -48 6 11 26 38 46 61 40 49
47 76 10 41 -22 -21 -25 -21 -31 -6 -4 10 1 55 11 101 16 76 15 106 -3 104 -4
0 -29 -7 -57 -16z m-5 -77 c0 -33 -35 -96 -57 -104 -18 -5 -17 52 2 88 12 23
38 48 53 50 1 0 2 -15 2 -34z"/>
<path d="M6769 3225 c-26 -14 -59 -55 -59 -74 0 -5 10 -7 21 -4 21 6 21 4 14
-53 -4 -32 -11 -67 -16 -76 -14 -26 -11 -55 8 -62 23 -9 28 -1 52 77 25 83 38
107 56 107 23 0 25 -14 10 -71 -35 -130 -3 -156 79 -63 44 50 43 63 -4 39
l-33 -17 6 29 c41 186 34 213 -36 145 -50 -50 -62 -52 -54 -13 8 39 -10 54
-44 36z"/>
<path d="M397 3094 c-46 -53 -55 -69 -46 -80 9 -11 9 -24 1 -52 -29 -95 -22
-187 14 -199 18 -6 74 46 74 69 0 15 -5 18 -19 13 -29 -9 -34 9 -20 85 12 69
13 70 44 70 17 0 39 6 49 13 24 18 11 46 -21 44 -36 -3 -38 15 -7 53 22 26 25
33 13 41 -21 13 -21 13 -82 -57z"/>
<path d="M585 3053 c-75 -38 -104 -86 -112 -181 -4 -52 -1 -71 11 -87 16 -20
16 -19 48 15 18 19 41 46 50 60 l18 25 -1 -50 c-2 -94 -1 -94 60 -20 46 56 57
94 16 55 l-25 -23 0 49 c0 28 7 74 15 102 9 29 13 57 10 62 -9 14 -55 10 -90
-7z m15 -70 c0 -28 -45 -113 -60 -113 -16 0 -22 47 -10 72 15 29 51 68 62 68
4 0 8 -12 8 -27z"/>
<path d="M1128 3040 c-51 -40 -85 -197 -54 -245 22 -33 35 -32 84 11 56 48 58
86 3 48 -19 -14 -25 -14 -32 -3 -24 38 -4 77 59 111 38 20 52 46 41 76 -11 29
-66 30 -101 2z m52 -39 c0 -17 -27 -37 -37 -27 -7 7 17 46 27 46 6 0 10 -9 10
-19z"/>
<path d="M5295 1451 c-36 -22 -53 -41 -92 -106 -41 -69 -52 -106 -70 -242 -14
-111 -20 -176 -39 -437 l-7 -109 29 7 c57 15 90 37 150 104 53 58 94 118 94
137 0 17 -36 -1 -86 -45 -94 -82 -106 -71 -80 76 8 44 20 124 26 179 10 88 36
210 55 256 10 25 50 42 85 36 25 -6 37 -1 67 26 30 28 35 39 35 75 0 23 -4 46
-7 52 -11 18 -127 12 -160 -9z"/>
<path d="M5605 1458 c-31 -17 -59 -51 -98 -115 -52 -85 -62 -134 -93 -463 -33
-345 -35 -334 40 -306 59 23 206 183 206 225 0 23 -29 9 -84 -39 -82 -72 -100
-66 -85 25 4 28 15 109 24 180 32 264 68 353 139 342 76 -11 141 77 106 144
-9 16 -21 19 -73 19 -34 0 -71 -6 -82 -12z"/>
<path d="M3950 1169 c-13 -6 -42 -7 -63 -4 -42 8 -67 -6 -67 -36 0 -11 -11
-40 -25 -66 -14 -27 -43 -93 -66 -148 -22 -55 -43 -106 -47 -113 -20 -37 -34
-4 -103 236 -37 132 -43 137 -133 127 -92 -9 -99 -18 -51 -59 39 -33 40 -35
39 -97 -1 -95 -29 -311 -45 -344 -12 -26 -21 -31 -68 -37 -52 -6 -93 -30 -77
-45 4 -4 29 -7 54 -5 26 1 75 -3 109 -9 69 -12 113 -6 113 16 0 7 -12 20 -27
27 l-28 14 4 109 c2 66 9 124 18 145 14 33 15 34 29 16 8 -11 14 -28 14 -38 0
-16 47 -171 71 -236 5 -13 15 -22 21 -20 7 3 31 40 53 84 52 99 113 194 125
194 14 0 18 -28 22 -140 l3 -105 -50 -5 c-44 -4 -50 -8 -53 -30 l-3 -25 118 2
c65 1 137 2 161 2 39 1 43 3 40 23 -2 16 -16 25 -52 37 l-49 16 -13 64 c-8 36
-14 74 -14 85 -1 12 -3 71 -6 132 -6 123 2 144 54 144 33 0 72 25 72 46 0 15
-35 54 -47 53 -5 0 -19 -5 -33 -10z"/>
<path d="M2606 1161 c-13 -20 -36 -158 -31 -179 10 -40 45 -24 64 28 l17 45
83 3 c56 2 88 -1 98 -10 13 -11 15 -36 9 -178 -4 -91 -9 -172 -12 -181 -3 -10
-25 -21 -59 -28 -52 -12 -95 -45 -95 -75 0 -13 75 -14 161 -2 34 5 94 3 150
-4 86 -11 94 -11 106 6 20 27 -4 55 -62 69 -27 7 -55 21 -62 31 -10 13 -13 64
-13 196 0 206 -3 201 102 196 67 -3 62 1 98 -78 4 -8 16 -15 26 -15 17 0 19 9
22 80 3 95 -5 113 -39 94 -17 -9 -94 -14 -262 -16 -202 -3 -241 -2 -259 12
-26 17 -35 19 -42 6z"/>
<path d="M2303 1149 c-19 -19 -16 -35 9 -51 20 -13 23 -26 26 -98 3 -45 0 -86
-5 -91 -16 -16 -213 -14 -244 2 -12 6 -18 29 -23 79 -8 80 -2 94 44 104 23 4
30 11 30 30 l0 24 -115 0 c-102 1 -116 -1 -125 -18 -14 -26 -13 -30 11 -30 53
0 54 -2 54 -222 l0 -203 -32 -15 c-25 -12 -33 -21 -33 -42 0 -32 -7 -30 128
-33 109 -2 126 7 73 38 -34 20 -41 48 -34 140 5 61 8 68 31 74 38 9 225 -7
235 -20 4 -7 6 -47 5 -90 -3 -76 -4 -80 -38 -107 -19 -16 -32 -31 -28 -35 3
-4 55 -9 116 -11 94 -4 111 -3 123 12 8 10 10 19 4 21 -5 2 -26 12 -45 21
l-35 17 3 205 c2 124 8 210 14 217 6 7 23 13 39 13 22 0 29 5 29 20 0 26 -23
36 -100 43 -36 3 -74 9 -85 12 -11 3 -26 0 -32 -6z"/>
<path d="M4503 1154 c-20 -9 -15 -40 8 -55 18 -12 22 -28 26 -101 7 -109 15
-105 -170 -98 -69 2 -80 5 -93 25 -22 33 -16 145 9 156 9 5 25 13 35 18 9 4
18 17 20 29 3 19 -2 20 -110 20 -64 1 -118 -4 -125 -10 -23 -18 -14 -36 21
-42 l33 -6 0 -211 0 -211 -26 -11 c-39 -17 -47 -32 -31 -57 7 -11 34 -15 119
-16 61 -1 111 2 111 6 0 4 -16 20 -35 34 -35 27 -35 28 -35 105 0 114 2 116
139 108 62 -4 116 -9 122 -12 5 -4 9 -43 9 -88 0 -78 -1 -82 -32 -114 -17 -18
-29 -35 -25 -39 12 -13 218 -16 233 -4 19 16 10 28 -36 46 -21 9 -40 21 -42
27 -7 20 16 401 25 415 5 6 19 12 32 12 32 0 41 17 21 39 -12 13 -37 20 -84
24 -37 3 -76 8 -87 11 -11 3 -26 3 -32 0z"/>
<path d="M4930 1049 c-66 -30 -97 -64 -119 -133 -43 -131 -49 -278 -13 -318
29 -34 73 -23 135 33 65 58 84 86 69 101 -7 7 -25 2 -57 -16 -58 -34 -75 -25
-75 43 0 60 17 83 91 122 64 34 99 70 99 100 0 31 -21 66 -47 78 -31 14 -30
14 -83 -10z m48 -81 c4 -22 -32 -58 -59 -58 -18 0 -20 4 -14 27 4 16 11 34 17
41 15 18 52 11 56 -10z"/>
</g>
</svg>
