<svg xmlns="http://www.w3.org/2000/svg" viewBox="0 0 210 197">
  <defs>
    <polygon id="p_arm" points="29.4,25.4 34.4,25.4 21.1,66.4 0.6,3.6 4.7,0.7 21.1,51"/>
    <g id="p">
      <use transform="translate(85 74) rotate(0)" href="#p_arm"/>
      <use transform="translate(95.5 97) rotate(-72)" href="#p_arm"/>
      <use transform="translate(120.5 94) rotate(-144)" href="#p_arm"/>
      <use transform="translate(125.5 69.3) rotate(-216)" href="#p_arm"/>
      <use transform="translate(103.5 57) rotate(-288)" href="#p_arm"/>
    </g>
    <mask id="p_mask">
      <rect x="0" y="0" width="210" height="197" fill="#fff" />
      <use href="#p" fill="#000" stroke="#000" stroke-width="3.5"/>
    </mask>
    <path id="letter_H" d="M54.4,166h0.3c0.2,0,0.4,0.1,0.6,0.2c0.3,0.1,0.5,0.2,0.8,0.2l0.9-0.3h1.8c0.2,0,0.4,0.1,0.5,0.3c0,0.1,0.1,0.2,0.1,0.3 c0,0.3,0,0.6-0.2,0.9c-0.1,0.2-0.3,0.3-0.5,0.3c-0.2,0.1-0.4,0.1-0.6,0.1c-0.2,0-0.4,0.1-0.6,0.1c-0.2,0.1-0.4,0.3-0.5,0.5 c-0.1,0.4-0.2,0.7-0.2,1.1c0,0.3,0.1,0.5,0.1,0.8c0.1,0.2,0.1,0.5,0.1,0.8v0.9c0,0.4,0.1,0.8,0.4,1.1c0.3,0.3,0.6,0.5,1,0.5 c0.1,0,0.3,0,0.4-0.1c0.1,0,0.1,0,0.2-0.1l1.1,0.2h1.4c0.2,0,0.3,0,0.5,0c0.3,0,0.5,0.1,0.7,0.3c0.1,0,0.2,0,0.3,0 c0.1,0,0.1,0,0.2,0c0.1,0,0.2-0.1,0.2-0.2c0.1,0,0.1-0.1,0.2-0.1h1.2c0.1-0.1,0.2-0.2,0.3-0.4c0.1-0.1,0.2-0.3,0.2-0.5v-2.4 l-0.3-1.5v-0.5c0-0.2-0.1-0.3-0.2-0.4c-0.1-0.1-0.3-0.2-0.5-0.2c-0.2-0.1-0.3-0.2-0.5-0.3c-0.2-0.2-0.2-0.4-0.2-0.6 c0-0.3,0.1-0.5,0.4-0.7c0.2-0.2,0.5-0.3,0.8-0.3c0.3,0.1,0.5,0.2,0.8,0.3c0.2,0.1,0.5,0.1,0.8,0.2c0.3,0.1,0.6,0.1,0.9,0.1h1.2 c0.2,0,0.5,0,0.7,0.1c0.2,0,0.5,0.1,0.7,0.2c0.2,0.1,0.4,0.3,0.6,0.5c0.2,0.2,0.2,0.5,0.2,0.7l-0.2,0.3l-0.7,0.2h-0.8 c-0.1,0-0.3,0.1-0.5,0.4c-0.2,0.2-0.3,0.4-0.3,0.7v3.2c0,0.2,0,0.4,0.1,0.7c0,0.2,0.1,0.5,0.1,0.7c0,0.1,0,0.2-0.1,0.3 c-0.1,0.1-0.1,0.2-0.2,0.3c-0.1,0.2-0.1,0.4-0.2,0.6v1.7c0,0.3,0,0.6,0.1,0.9c0,0.3,0.1,0.5,0.1,0.8c0,0.2,0,0.4-0.1,0.5 c-0.1,0.2-0.1,0.4-0.1,0.7c0,0.1,0,0.2,0,0.3c0,0.1,0,0.2,0,0.2c0,0.1,0,0.2,0,0.3c0,0.1,0,0.2,0.1,0.3c0.1,0.3,0.3,0.5,0.5,0.6 c0.3,0.2,0.6,0.3,0.9,0.4c0.3,0.1,0.6,0.2,0.9,0.4c0.3,0.1,0.4,0.3,0.4,0.4c0,0.1,0,0.3-0.1,0.4c-0.1,0.1-0.2,0.2-0.3,0.3 c-0.1,0.1-0.3,0.2-0.4,0.2h-3.4l-1.4-0.3l-0.9,0.3c-0.1,0-0.2,0-0.3,0c-0.1,0-0.2,0-0.4-0.1c-0.1,0-0.2-0.1-0.3-0.2 c-0.1-0.1-0.1-0.2-0.1-0.4c0-0.2,0.1-0.4,0.3-0.6c0.2-0.1,0.4-0.3,0.7-0.5c0.3-0.2,0.5-0.4,0.7-0.7c0.2-0.3,0.3-0.7,0.3-1.1v-3.5 c0-0.2-0.1-0.4-0.2-0.5c-0.1-0.2-0.2-0.3-0.4-0.3h-2c-0.2,0-0.4-0.1-0.6-0.2c-0.2-0.1-0.4-0.1-0.6-0.2h-2.9c-0.4,0-0.7,0.1-1,0.3 c-0.3,0.2-0.4,0.6-0.4,0.9v2c-0.1,0.3-0.2,0.6-0.2,0.6c0,0.1,0,0.2,0,0.3c0,0.2,0,0.3,0.1,0.5c0.1,0.2,0.1,0.4,0.1,0.6 c-0.1,0.2-0.1,0.5,0.1,0.7c0.2,0.2,0.5,0.4,0.7,0.6l0.8,0.5c0.2,0.1,0.4,0.3,0.4,0.6c0,0.1,0,0.1-0.1,0.2c-0.1,0.1-0.2,0.1-0.3,0.2 c-0.1,0-0.2,0.1-0.4,0.1c-0.1,0-0.2,0-0.3,0c-0.1,0-0.3,0-0.4-0.1c-0.2-0.1-0.4-0.1-0.6-0.2c-0.2-0.1-0.5-0.1-0.7-0.2 c-0.2-0.1-0.5-0.1-0.7-0.1c-0.1,0.1-0.2,0.1-0.3,0.2c-0.1,0-0.2,0.1-0.3,0.1c-0.1,0-0.2,0-0.3,0H53c-0.3,0-0.6-0.1-0.8-0.2 c-0.3-0.1-0.4-0.4-0.4-0.7c0-0.3,0-0.5,0.1-0.8c0.1-0.3,0.3-0.4,0.6-0.4L53,181c0.2,0,0.4-0.2,0.6-0.3c0.2-0.1,0.3-0.3,0.3-0.5v-2 c0-0.3-0.1-0.6-0.2-0.8c-0.1-0.4-0.2-0.8-0.2-1.2v-1.4c0-0.1,0-0.2,0-0.3c0-0.2,0.1-0.3,0.1-0.5c0-0.2,0.1-0.4,0.1-0.5 c0-0.1,0-0.2,0-0.3l-0.3-1.4c0-0.2,0.1-0.4,0.2-0.6c0.1-0.1,0.1-0.3,0.2-0.5v-2c0-0.1-0.1-0.3-0.3-0.3c-0.3-0.1-0.5-0.2-0.8-0.2 c-0.3,0-0.6-0.1-0.8-0.2s-0.3-0.1-0.3-0.2c0-0.4,0.1-0.7,0.3-1c0.2-0.3,0.4-0.4,0.7-0.4l1.5-0.1L54.4,166z"/>
    <path id="letter_a" d="M195.9,102.6c0.2,0,0.4,0.1,0.6,0.2c0.1,0.2,0.2,0.4,0.2,0.6c0,0.1,0,0.2-0.1,0.3c0,0.2-0.1,0.3-0.1,0.6 c-0.1,0.2-0.1,0.4-0.2,0.6l-0.1,0.5c0,0.1,0,0.2,0,0.3c0,0.1-0.1,0.3-0.1,0.4c-0.1,0.1-0.2,0.2-0.1,0.4v0.4l-0.1,1v0.7 c0,0,0,0.1,0,0.2c0,0.1,0,0.2,0,0.3c0,0.1,0.1,0.2,0.1,0.2c0,0.1,0.1,0.1,0.2,0.1l0.3-0.4c0.1-0.1,0.2-0.1,0.3-0.2 c0.1-0.1,0.2-0.2,0.3-0.3c0.1-0.1,0.2-0.2,0.3-0.3c0.1,0,0.1,0,0.2,0.1c0,0.1,0.1,0.1,0.1,0.2l-0.1,0.1c0,0.1-0.1,0.2-0.1,0.2 c-0.1,0.2-0.2,0.4-0.3,0.6c-0.1,0.2-0.3,0.3-0.4,0.5l-0.5,0.5c-0.2,0.2-0.3,0.4-0.5,0.6l-0.4,0.6c0,0.1,0,0.2-0.1,0.3 c-0.1,0.1-0.1,0.2-0.2,0.3c-0.1,0.1-0.2,0.1-0.3,0.1c-0.1,0-0.2-0.1-0.2-0.2c-0.1-0.2-0.1-0.4-0.1-0.6c0-0.2,0-0.4,0.1-0.6 c0-0.2,0.1-0.4,0.1-0.6c0-0.2,0.1-0.4,0.1-0.5v-1c0-0.1,0-0.1-0.1-0.1c0,0-0.1,0-0.1,0c0,0-0.1,0.1-0.3,0.3s-0.3,0.5-0.5,0.7 l-0.6,0.8c-0.1,0.2-0.3,0.4-0.5,0.6c0,0-0.1,0.1-0.2,0.2c-0.1,0.1-0.2,0.2-0.3,0.3c-0.1,0.1-0.2,0.2-0.3,0.2 c-0.1,0.1-0.2,0.1-0.3,0.1c-0.2,0-0.3-0.1-0.4-0.2c-0.1-0.1-0.2-0.3-0.3-0.4c-0.1-0.2-0.1-0.3-0.1-0.5c0-0.1,0-0.2,0-0.4l-0.1-1.3 l0.3-2.1c0-0.1,0-0.2,0.1-0.3c0-0.1,0.1-0.3,0.1-0.4c0.1-0.2,0.1-0.3,0.2-0.5c0.1-0.1,0.1-0.3,0.2-0.4c0.4-0.4,0.7-0.8,1-1.2 c0.1-0.2,0.3-0.3,0.5-0.5c0.1-0.1,0.3-0.2,0.4-0.2c0.1-0.1,0.3-0.1,0.4-0.1c0.2,0,0.3-0.1,0.5-0.2c0.1,0,0.2-0.1,0.3-0.1 c0.1-0.1,0.2-0.2,0.3-0.2h0.8L195.9,102.6z M193.6,104.6c-0.2,0.2-0.4,0.4-0.6,0.6c-0.2,0.2-0.4,0.5-0.5,0.7 c-0.1,0.2-0.2,0.4-0.3,0.7c-0.1,0.2-0.1,0.3-0.1,0.5c0,0.1,0,0.2,0,0.3c0,0.2,0,0.3,0,0.5c0,0.2,0.1,0.3,0.1,0.5 c0.1,0.1,0.2,0.2,0.4,0.2c0.2,0,0.3-0.1,0.6-0.4c0.2-0.3,0.4-0.6,0.6-0.9c0.2-0.3,0.3-0.7,0.5-1c0.1-0.2,0.1-0.4,0.2-0.6 c0,0,0-0.2,0-0.4c0-0.2,0-0.4,0-0.6c0-0.1-0.1-0.3-0.2-0.4C194,104.4,193.8,104.5,193.6,104.6L193.6,104.6z"/>
    <path id="letter_e" d="M30.4,108.2c0.2,0,0.4,0,0.6,0.1c0.2,0.1,0.3,0.2,0.4,0.4c0.1,0.2,0.2,0.4,0.2,0.6c0,0.2,0.1,0.4,0.1,0.7 c0,0.3-0.1,0.6-0.4,0.8c-0.2,0.2-0.5,0.4-0.7,0.5c-0.2,0.2-0.5,0.3-0.7,0.4c-0.3,0.1-0.5,0.2-0.7,0.4c-0.2,0.1-0.4,0.3-0.6,0.5 c-0.2,0.2-0.2,0.5-0.2,0.7v0.8c0,0.2,0,0.4,0.1,0.6c0.1,0.2,0.2,0.3,0.4,0.3c0,0,0.1,0,0.1-0.1l0.3-0.2c0.1-0.1,0.2-0.1,0.3-0.2 l0.2-0.2c0.2-0.1,0.3-0.2,0.4-0.2c0.1,0,0.1-0.1,0.2,0c0.1,0,0.1,0,0.2,0c0.1,0,0.1,0.1,0.1,0.3c0,0.3-0.2,0.6-0.3,0.8 c-0.2,0.2-0.4,0.5-0.7,0.7c-0.2,0.2-0.5,0.4-0.7,0.6c-0.2,0.1-0.3,0.2-0.5,0.3c-0.2,0.2-0.4,0.3-0.6,0.3c-0.2,0-0.4,0-0.5,0 c-0.1,0-0.2-0.1-0.3-0.1c-0.1-0.1-0.2-0.2-0.3-0.3c-0.1-0.1-0.2-0.2-0.2-0.4c0-0.1-0.1-0.2-0.1-0.3v-0.3c0-0.1,0-0.2-0.1-0.3 c0,0,0-0.1-0.1-0.1l0.1-0.4v-0.3c0,0,0-0.2,0-0.4c0-0.2,0.1-0.4,0.1-0.7c0-0.3,0.1-0.5,0.1-0.7c0-0.2,0.1-0.4,0.1-0.4 c0,0,0.1-0.1,0.1-0.1c0,0,0-0.1,0-0.1c0,0,0-0.1,0-0.1c0-0.1,0-0.1,0.1-0.2c0-0.2,0-0.3,0.1-0.5c0-0.1,0.1-0.2,0.1-0.3l0.3-0.6 c0-0.3,0.2-0.6,0.4-0.8c0.2-0.3,0.5-0.6,0.8-0.8c0.3-0.2,0.6-0.4,1-0.6C29.8,108.2,30.1,108.1,30.4,108.2z M29.6,109.5 c-0.1,0-0.1,0-0.2,0.1c-0.1,0.1-0.1,0.2-0.2,0.3c-0.1,0.1-0.1,0.3-0.2,0.4c0,0.1,0,0.1-0.1,0.2c0,0.1,0,0.1-0.1,0.2 c0,0.1,0,0.1,0,0.2c0,0,0.1,0.1,0.1,0.1c0.1,0,0.2,0,0.3,0c0.1,0,0.3-0.1,0.4-0.2c0.1-0.1,0.2-0.2,0.3-0.3c0.1-0.1,0.2-0.2,0.2-0.3 v-0.3c0-0.1,0-0.1-0.1-0.2c0,0-0.1-0.1-0.1-0.1c-0.1,0-0.1-0.1-0.2-0.1L29.6,109.5z"/>
    <path id="letter_l" d="M27.7,100.9c0.4,0,0.6,0.1,0.7,0.3c0.1,0.2,0.1,0.5,0.1,0.7v0.3c0,0.2-0.1,0.4-0.2,0.6c-0.1,0.2-0.2,0.4-0.4,0.5 c-0.2,0.2-0.3,0.3-0.5,0.4c-0.1,0.1-0.3,0.2-0.4,0.2c-0.1,0-0.3,0-0.4-0.1c-0.1,0-0.2-0.1-0.3-0.1c-0.3,0-0.6,0.1-0.8,0.2 c-0.3,0.2-0.5,0.4-0.5,0.8c-0.1,0.1-0.1,0.3-0.1,0.5c0,0.1,0,0.3-0.1,0.4c-0.1,0.3-0.2,0.7-0.3,1c-0.1,0.4-0.2,0.8-0.2,1.1 c0,0.1,0,0.1,0,0.2c0,0.1,0,0.2-0.1,0.3c0,0.1,0,0.2-0.1,0.3v0.6l-0.3,1.5c0,0.2,0,0.4,0,0.6c0,0.2-0.1,0.5-0.1,0.8 c-0.1,0.3-0.1,0.6-0.2,0.9c-0.1,0.4-0.1,0.7-0.1,1.1c0,0.1,0,0.2,0,0.4c0,0.2,0.1,0.2,0.2,0.2c0.1,0,0.2,0,0.4-0.1 c0.1-0.1,0.3-0.2,0.4-0.3l0.4-0.3c0.1-0.1,0.2-0.2,0.4-0.3c0.2-0.2,0.5-0.4,0.7-0.6c0.2-0.2,0.4-0.3,0.7-0.3l0.1,0.1 c0,0.2,0,0.3-0.1,0.5c-0.1,0.2-0.2,0.4-0.3,0.5c-0.1,0.2-0.2,0.3-0.4,0.5c-0.1,0.1-0.2,0.2-0.4,0.3c-0.2,0.2-0.4,0.4-0.6,0.6 c-0.2,0.3-0.4,0.5-0.6,0.7c-0.1,0.2-0.2,0.3-0.4,0.4c-0.2,0.1-0.3,0.2-0.5,0.3s-0.4,0.2-0.7,0.3c-0.2,0.1-0.4,0.2-0.7,0.2 c-0.1,0-0.2,0-0.3-0.1c-0.1,0-0.1-0.1-0.1-0.2c0-0.1,0-0.2,0-0.3c0-0.2,0-0.3,0-0.5V115c0-0.2,0-0.3,0.1-0.5 c0.1-0.2,0.1-0.3,0.1-0.5v-0.4c0,0.1,0,0.1,0-0.1c0-0.2,0.1-0.5,0.1-0.8c0-0.4,0.1-0.8,0.1-1.3c0-0.5,0-1,0-1.6 c0-0.1,0-0.2,0.1-0.3c0.1-0.1,0.1-0.2,0.1-0.3v-0.7c0.1-0.4,0.1-0.7,0.2-1c0-0.3,0.1-0.7,0.1-1c0-0.3,0.1-0.7,0.1-1 c0.1-0.3,0.2-0.7,0.3-1c0.1-0.3,0.3-0.7,0.5-0.9c0.2-0.3,0.4-0.6,0.6-1c0.1-0.2,0.2-0.3,0.3-0.4c0.1-0.1,0.2-0.2,0.4-0.3 c0.2-0.3,0.4-0.5,0.7-0.7c0.3-0.2,0.6-0.2,0.9-0.2H27.7z"/>
    <path id="letter_n" d="M200.1,103c0.1,0,0.2,0,0.3,0.1c0.1,0.1,0.1,0.2,0.2,0.3c0,0.1,0.1,0.2,0,0.3c0,0.1,0,0.3-0.1,0.4c0,0.1-0.1,0.3-0.1,0.4 c0,0.1,0,0.2,0,0.3l0.1,0.3l0.2,0.4c0,0,0.1-0.1,0.3-0.2c0.1-0.1,0.3-0.3,0.5-0.5c0.2-0.2,0.4-0.4,0.6-0.7c0.2-0.2,0.4-0.5,0.6-0.7 c0.2-0.2,0.4-0.4,0.5-0.5c0.1-0.1,0.2-0.2,0.3-0.2c0.1,0,0.2,0.1,0.2,0.2c0.1,0.1,0.1,0.2,0.2,0.4c0.1,0.2,0.1,0.4,0.2,0.6 c0,0.2,0,0.5,0,0.7c0,0.3-0.1,0.7-0.2,1c-0.1,0.4-0.2,0.7-0.3,1.1c-0.1,0.4-0.2,0.7-0.3,1s-0.1,0.6-0.2,0.8 c-0.1,0.2-0.1,0.3-0.1,0.3c0,0.1,0,0.1,0,0.2c0,0.1,0,0.1,0,0.2c0,0,0,0.1,0,0.1c0.1,0,0.1,0.1,0.2,0.1l0.2-0.1 c0.1,0,0.1-0.1,0.2-0.1l0.2-0.2l0.6-0.4c0.1-0.1,0.2-0.1,0.3-0.2c0.1,0,0.2,0.1,0.2,0.1c0.1,0.1,0.1,0.1,0.1,0.2 c0,0.1-0.1,0.1-0.1,0.2c-0.1,0.1-0.2,0.2-0.3,0.3c-0.1,0.1-0.2,0.2-0.3,0.3c-0.1,0.1-0.1,0.1-0.2,0.1c0,0.1,0,0.2-0.1,0.3 c0,0.1-0.1,0.1-0.2,0.1c-0.2,0.2-0.3,0.4-0.5,0.6c-0.1,0.2-0.3,0.4-0.4,0.5c-0.1,0.2-0.3,0.3-0.4,0.4c-0.2,0.1-0.4,0.2-0.6,0.1 c-0.1,0-0.2,0-0.3-0.1c-0.1-0.1-0.2-0.1-0.2-0.2c-0.1-0.1-0.1-0.2-0.2-0.3c0-0.1-0.1-0.2-0.1-0.3l-0.1-0.7c0.1-0.3,0.2-0.7,0.3-1.1 c0.1-0.4,0.2-0.7,0.3-1.1c0.1-0.3,0.2-0.6,0.2-0.8c0.1-0.2,0.1-0.5,0.1-0.7v-0.2c0-0.3-0.2-0.5-0.4-0.5c-0.2,0-0.5,0.1-0.7,0.2 c-0.2,0.1-0.3,0.3-0.4,0.5c-0.1,0.2-0.2,0.4-0.3,0.6c-0.1,0.2-0.2,0.4-0.3,0.7c-0.1,0.1-0.1,0.1-0.1,0.2c0,0.1,0,0.2,0,0.2 c0,0.1-0.1,0.3-0.1,0.4c0,0.1-0.1,0.3-0.1,0.4c-0.1,0.4-0.3,0.8-0.4,1.2s-0.2,0.7-0.3,1.1c0.1,0.1,0.1,0.2,0,0.2 c-0.1,0-0.1,0-0.2,0h-0.3c-0.1,0-0.3,0-0.4-0.1c-0.1,0-0.2-0.1-0.3-0.2c-0.1-0.1-0.2-0.2-0.2-0.3c0-0.2,0-0.4,0.1-0.6 c0.1-0.2,0.2-0.4,0.2-0.6c0.1-0.2,0.2-0.4,0.3-0.5c0.1-0.1,0.1-0.2,0.1-0.3v-0.7l-0.1-0.3c0-0.1,0-0.2,0.1-0.3 c0-0.1,0.1-0.2,0.2-0.3l0.2-0.3c0-0.1,0.1-0.1,0.1-0.2v-0.3l-0.1-0.7c0-0.1,0-0.2,0-0.2c0-0.1-0.1-0.1-0.2-0.1 c-0.1,0-0.2,0-0.2,0.1c-0.1,0-0.2,0.1-0.3,0.1l-0.3,0.1c-0.1,0-0.1,0-0.2,0.1h-0.1c-0.1,0-0.1-0.1-0.1-0.3c0-0.1,0.1-0.2,0.1-0.3 c0.3-0.4,0.6-0.8,0.9-1.1c0.3-0.3,0.6-0.6,1-0.9c0.1,0,0.2-0.1,0.3-0.2C199.8,103,200,103,200.1,103z"/>
    <path id="letter_v" d="M55.9,9.9c0,0.2,0.1,0.3,0.2,0.5c0.1,0.1,0.1,0.3,0.1,0.4c0,0.1,0.1,0.3,0.1,0.4c0,0.2,0,0.3,0,0.5l0.1,0.8 c0,0.1,0,0.3,0,0.4c0,0.1,0,0.2,0.1,0.2c0,0.1,0.1,0.2,0.1,0.3c0,0.1,0.1,0.2,0.1,0.2c0,0,0.1-0.1,0.2-0.2c0-0.1,0.1-0.2,0.2-0.2 c0.1-0.1,0.2-0.2,0.3-0.3c0.1-0.1,0.2-0.2,0.2-0.3c0-0.2,0.1-0.3,0.2-0.5C58,12,58,11.9,58,11.8c0-0.1,0-0.3,0-0.4 c0-0.2,0-0.4,0-0.6c0-0.1,0-0.2-0.1-0.3c-0.1-0.1-0.1-0.2-0.2-0.3c-0.1-0.1-0.1-0.2-0.2-0.3c0-0.1-0.1-0.2-0.1-0.3 c0-0.1,0-0.2,0-0.3c0-0.1,0.1-0.1,0.1-0.2c0,0,0.1-0.1,0.2-0.2c0.1-0.1,0.1-0.2,0.2-0.3c0-0.2,0.2-0.4,0.3-0.6 c0.2-0.1,0.3-0.3,0.6-0.5c0.1,0,0.2,0.1,0.3,0.2c0.1,0.1,0.1,0.2,0.2,0.3c0.1,0.2,0.3,0.4,0.4,0.6c0.1,0.2,0.1,0.4,0.1,0.6V10 c0,0,0,0.1,0,0.1c0,0.1,0,0.2,0,0.3c0,0.2,0,0.4-0.1,0.6c-0.1,0.2-0.2,0.5-0.3,0.7c0,0,0,0.1,0,0.1c0,0,0,0-0.1,0.1 c-0.1,0-0.1,0.1-0.1,0.2c-0.1,0.1-0.1,0.2-0.2,0.2c0,0.1-0.1,0.1-0.1,0.2c0,0.1,0,0.1,0,0.2c0,0.1,0,0.1-0.1,0.1 c-0.1,0.1-0.1,0.1-0.2,0.2c-0.1,0.1-0.1,0.2-0.2,0.2c0,0.1-0.1,0.2-0.1,0.3c-0.1,0.2-0.3,0.3-0.4,0.4l-0.3,0.3l-0.3,0.3 c-0.1,0.1-0.2,0.3-0.3,0.4c-0.2,0.2-0.3,0.4-0.4,0.6c-0.1,0.2-0.2,0.4-0.4,0.6c-0.1,0.2-0.3,0.3-0.4,0.4c-0.2,0.1-0.4,0.2-0.6,0.2 c-0.1,0-0.1,0-0.2,0c-0.1,0-0.1-0.1-0.1-0.3l0.1-0.9c-0.1-0.1-0.1-0.3-0.1-0.4c0-0.1,0-0.2,0-0.3c0-0.3,0-0.5,0-0.7 c0-0.2,0-0.4,0-0.6c0-0.1,0-0.3,0-0.4c0-0.1-0.1-0.2-0.1-0.3c0-0.1-0.1-0.2-0.1-0.3c0-0.1,0-0.2,0-0.3c0-0.1-0.1-0.2-0.1-0.3 c-0.1-0.2-0.1-0.4-0.2-0.6l-0.2-0.6c0-0.1-0.1-0.2-0.1-0.4c0-0.2-0.1-0.3-0.3-0.4C53.8,10,53.6,10,53.5,10c-0.1,0-0.1,0-0.2,0 c0,0-0.1,0.1-0.1,0.1c0,0-0.1,0.1-0.2,0.1c-0.1,0-0.2,0-0.3,0c-0.1,0-0.1,0-0.2-0.1c0,0-0.1-0.1-0.1-0.1c0-0.2,0.1-0.3,0.2-0.5 c0.1-0.2,0.2-0.2,0.3-0.2l0.5-0.5c0.2-0.1,0.3-0.3,0.6-0.4C54,8.4,54,8.4,54.1,8.3c0.1-0.1,0.2-0.2,0.3-0.3 c0.1-0.1,0.2-0.2,0.3-0.2c0.1-0.1,0.2-0.1,0.3-0.1c0.1,0,0.3,0.1,0.3,0.2c0.1,0.1,0.1,0.2,0.1,0.4c0,0.1,0,0.3,0,0.4 c0,0.1,0,0.2,0,0.3L55.9,9.9z"/>
  </defs>
  <g id="logo_p">
    <circle cx="106.1" cy="78.3" r="65.6" stroke="#000" stroke-width="5.5" fill="none" mask="url(#p_mask)"/>
    <use href="#p"/>
  </g>
  <g id="logo_words">
    <g id="logo_div">
      <path d="M50.3,0.5h0.5c0,0,0.1,0,0.1,0.1C51,0.7,51,0.8,51.1,0.9c0,0.1,0.1,0.2,0.1,0.3v0.5c0,0.4-0.1,0.8-0.4,1.1 c-0.3,0.3-0.7,0.5-1.1,0.4c0,0-0.1-0.1-0.1-0.1c-0.1,0-0.1-0.1-0.2-0.1c-0.1,0-0.2,0-0.3,0c-0.1,0-0.1,0.1-0.2,0.1 c-0.1,0.1-0.2,0.3-0.2,0.4c-0.1,0.2-0.2,0.4-0.3,0.6c-0.1,0.2-0.1,0.4-0.2,0.6c0,0.1-0.1,0.2-0.1,0.4l-0.1,0.5 c-0.1,0.2-0.1,0.4-0.2,0.6c-0.1,0.2-0.1,0.3-0.2,0.5c-0.1,0.2-0.1,0.4-0.1,0.6c0,0.2-0.1,0.5-0.1,0.7c-0.1,0.2-0.1,0.3-0.2,0.5 C47.1,8.7,47,9,47,9.3c-0.1,0.3-0.1,0.6-0.1,0.8s-0.1,0.4-0.1,0.4v0.3c0,0.1,0,0.2,0,0.3c0,0.1,0,0.3-0.1,0.4s0,0.3-0.1,0.4 c0,0.1,0,0.2,0,0.2c0,0.1-0.1,0.2-0.1,0.4c0,0.1,0,0.2,0,0.3c0,0.1,0,0.2,0.1,0.2c0,0.1,0,0.1,0,0.2c0,0.1,0,0.2,0,0.3 c0,0.1,0,0.2,0,0.3c0,0.1,0.1,0.1,0.2,0.1c0.2,0,0.3-0.1,0.5-0.2c0.2-0.1,0.3-0.2,0.4-0.4l0.4-0.4c0.1-0.1,0.2-0.2,0.2-0.2 c0.1,0,0.2,0,0.2,0.1c0.1,0.1,0.1,0.2,0.1,0.3c-0.1,0.1-0.2,0.3-0.3,0.4c-0.1,0.1-0.2,0.2-0.2,0.4C48,14.1,48,14.3,48,14.4 c-0.1,0.1-0.1,0.3-0.2,0.4c-0.1,0.1-0.2,0.3-0.3,0.4s-0.2,0.3-0.4,0.4c-0.1,0.1-0.2,0.3-0.3,0.5c0,0.1,0,0.1-0.1,0.1 c-0.1,0.1-0.1,0.1-0.2,0.2c-0.1,0-0.1,0.1-0.2,0.1c-0.1,0-0.1,0.1-0.2,0.1c-0.2,0.2-0.5,0.3-0.7,0.5c-0.2,0.1-0.3,0.1-0.3-0.1 c-0.1,0.1-0.2,0-0.3,0c-0.1-0.1-0.1-0.3-0.1-0.4c0-0.2,0-0.4,0-0.6c0-0.2,0-0.4,0-0.6c0-0.2,0-0.3,0-0.5c0-0.1,0-0.2-0.1-0.2 c-0.1,0-0.3,0.1-0.4,0.2c-0.2,0.1-0.3,0.3-0.5,0.5c-0.1,0.1-0.3,0.3-0.4,0.4c-0.1,0.2-0.3,0.4-0.4,0.6c-0.1,0.2-0.3,0.3-0.4,0.5 c-0.1,0.1-0.2,0.2-0.3,0.2c-0.1,0-0.3,0-0.4-0.1c-0.1-0.1-0.2-0.1-0.3-0.2c-0.1-0.1-0.2-0.2-0.2-0.3c-0.1-0.1-0.1-0.3-0.1-0.4v-1.1 c0-0.1,0-0.2,0-0.3c0-0.1,0.1-0.3,0.1-0.5c0-0.2,0.1-0.4,0.1-0.6c0-0.1,0-0.1,0-0.2c0-0.1,0-0.2,0.1-0.2c0-0.1,0.1-0.2,0.1-0.3 v-0.1c0-0.1,0-0.2,0.1-0.4c0-0.1,0-0.2,0.1-0.3c0-0.1,0-0.2,0-0.2c0.1-0.2,0.1-0.3,0.2-0.5c0-0.2,0.1-0.4,0.2-0.5 c0-0.3,0.1-0.5,0.3-0.7c0.2-0.2,0.3-0.4,0.5-0.5c0.2-0.2,0.4-0.3,0.6-0.4c0.2-0.1,0.4-0.3,0.6-0.5c0.1,0,0.1,0,0.2,0 c0.1,0,0.2-0.1,0.3-0.2l0.5-0.1c0.1,0,0.2-0.1,0.3-0.1c0.1-0.1,0.1-0.1,0.2-0.2c0-0.1,0.1-0.3,0.1-0.4L45.9,7l0.2-1.1l0.1-0.7 c0-0.1,0-0.2,0-0.3c0-0.1,0.1-0.3,0.1-0.4c0-0.1,0.1-0.3,0.1-0.4c0-0.1,0-0.2,0.1-0.2c0,0,0-0.1,0-0.1V3.6c0-0.1,0-0.2,0.1-0.2 c0-0.1,0.1-0.2,0.1-0.3c0-0.1,0.1-0.2,0.2-0.4C47,2.6,47,2.5,47.1,2.4c0.1-0.2,0.3-0.3,0.4-0.6c0.1-0.2,0.3-0.4,0.5-0.6 c0.2-0.2,0.3-0.3,0.5-0.5c0.2-0.1,0.3-0.2,0.5-0.3h0.1c0.2,0,0.3,0,0.3-0.1c0,0,0.1-0.1,0.2-0.1L50.3,0.5z M45,9.8 c-0.3,0-0.5,0.1-0.7,0.2c-0.2,0.2-0.4,0.4-0.6,0.6c-0.2,0.2-0.3,0.5-0.4,0.7c-0.1,0.2-0.2,0.4-0.2,0.6c0,0,0,0.2,0,0.4 c0,0.2,0,0.4,0,0.6c0,0.2,0.1,0.4,0.2,0.6c0.1,0.1,0.3,0.2,0.6,0.1c0.3-0.1,0.5-0.2,0.7-0.5c0.2-0.3,0.4-0.5,0.6-0.9 c0.2-0.3,0.3-0.7,0.3-1c0.1-0.3,0.1-0.7,0.1-1c0-0.1,0-0.2-0.1-0.3c0-0.1-0.1-0.1-0.1-0.2C45.2,9.8,45.1,9.8,45,9.8z"/>
      <path d="M51,7.7c0.2,0,0.4,0.1,0.5,0.2c0.1,0.1,0.2,0.3,0.2,0.5l-0.2,0.5c0.1,0.1,0.1,0.2,0.1,0.3c0,0.1,0,0.1,0,0.2 c0,0.2,0,0.5-0.1,0.7c-0.1,0.2-0.1,0.5-0.1,0.7v0.1c0,0.1,0,0.1,0,0.2c0,0.1,0,0.2-0.1,0.2c0,0.1-0.1,0.2-0.1,0.3v0.2 c0,0.1,0,0.2-0.1,0.3c-0.1,0.1-0.1,0.2-0.1,0.3c0,0.1-0.1,0.2-0.1,0.3C51,12.9,51,13,51,13.1c0,0.1,0,0.1,0,0.2 c0,0.1,0.1,0.2,0.1,0.2c0,0.1,0.1,0.1,0.2,0.2c0.1,0.1,0.1,0.1,0.2,0.1c0.1,0,0.2,0,0.3-0.1c0.1-0.1,0.1-0.1,0.2-0.2 c0.1-0.1,0.1-0.1,0.2-0.2c0.1,0,0.1-0.1,0.2-0.1h0.3c0.1,0,0.1,0,0.1,0.1c0,0,0,0,0,0c0,0.1,0,0.2,0,0.3c0,0-0.1,0.1-0.2,0.2 l-0.4,0.3c-0.1,0.1-0.3,0.2-0.4,0.4c-0.1,0.1-0.2,0.2-0.3,0.2c-0.1,0.1-0.1,0.3-0.2,0.4c-0.1,0.2-0.3,0.4-0.4,0.6 c-0.1,0.2-0.3,0.4-0.5,0.6c-0.1,0.1-0.3,0.2-0.4,0.2c-0.1,0-0.2,0-0.3-0.1c-0.1-0.1-0.2-0.1-0.3-0.2c-0.1-0.1-0.1-0.2-0.2-0.3 c-0.1-0.1-0.1-0.2-0.1-0.3v-0.3c0-0.1,0-0.2,0-0.3c0-0.1-0.1-0.1-0.1-0.1c0,0,0,0,0,0v-0.3l0.1-0.5v-0.9c0-0.1,0-0.3,0.1-0.4 c0.1-0.1,0.1-0.3,0.1-0.4v-0.2c0-0.1,0-0.2,0.1-0.4c0.1-0.2,0.1-0.3,0.2-0.5c0.1-0.2,0.1-0.4,0.2-0.6c0.1-0.1,0.1-0.3,0.1-0.5 c0-0.1,0-0.2-0.1-0.3c-0.1-0.1-0.2-0.2-0.4-0.2c-0.1,0-0.1,0-0.2,0.1c-0.1,0.1-0.3,0.1-0.5,0.1c0,0-0.1-0.1-0.1-0.1 c-0.1-0.1-0.1-0.2-0.1-0.3V9.6c0-0.1,0.1-0.3,0.3-0.5c0.2-0.2,0.5-0.4,0.7-0.6c0.3-0.2,0.5-0.4,0.8-0.6C50.6,7.8,50.8,7.7,51,7.7z M51,3.4c0.1,0,0.1,0,0.2,0l0.2-0.1l0.2-0.1c0.1,0,0.1,0,0.2,0c0.2,0,0.3,0.2,0.3,0.3c0.1,0.2,0.1,0.3,0.2,0.5c0,0.1,0,0.2,0,0.3 c0,0.1,0,0.2,0,0.3c0,0.1,0,0.2-0.1,0.3c-0.1,0.1-0.1,0.3-0.1,0.4c0,0.1-0.1,0.2-0.1,0.3c0,0.1-0.1,0.2-0.2,0.3 C52,5.9,51.9,6,51.8,6.1c-0.1,0.1-0.2,0.1-0.3,0.1c-0.4,0-0.8-0.3-1-0.6c-0.1-0.1-0.1-0.2-0.1-0.3c0-0.1,0-0.3,0-0.4 c0-0.3,0-0.6,0.2-0.8C50.8,3.8,50.9,3.6,51,3.4z"/>
      <use href="#letter_v"/>
    </g>
    <g id="logo_span">
      <path d="M183.8,102.6c0.2,0,0.4,0.1,0.5,0.3c0.1,0.1,0.2,0.3,0.2,0.5c0,0.1-0.1,0.2-0.3,0.3c-0.2,0.1-0.4,0.2-0.7,0.3 c-0.2,0.1-0.5,0.2-0.7,0.2c-0.2,0-0.3,0.1-0.5,0.2c-0.1,0.1-0.2,0.2-0.2,0.4c0,0.1-0.1,0.3-0.1,0.4c0,0.1,0,0.3,0.1,0.4 c0,0.1,0.1,0.3,0.2,0.4c0.1,0.2,0.2,0.3,0.3,0.6c0.1,0.2,0.2,0.4,0.3,0.6c0.1,0.3,0.2,0.5,0.2,0.8c0.1,0.3,0.1,0.7,0.1,1 c0,0.4-0.1,0.7-0.3,1c-0.2,0.3-0.5,0.6-0.8,0.9c-0.3,0.1-0.5,0.3-0.6,0.4c-0.1,0.1-0.3,0.2-0.4,0.2c-0.1,0.1-0.2,0.1-0.3,0.1 c-0.1,0-0.3,0-0.4,0h-0.7c-0.1,0-0.2,0-0.2,0c-0.1,0-0.2,0-0.3,0.1l-0.4,0.1h-0.5c-0.2,0-0.5-0.1-0.5-0.4c0,0,0-0.1,0-0.1 c0-0.1,0.1-0.3,0.2-0.4c0.1-0.2,0.3-0.4,0.4-0.5c0.2-0.2,0.3-0.3,0.5-0.5c0.1-0.1,0.3-0.2,0.5-0.2c0.1,0,0.1,0,0.2,0.1 c0.1,0.1,0.2,0.1,0.3,0.2c0.1,0.1,0.3,0.1,0.4,0.2c0.2,0.1,0.3,0.1,0.5,0.1c0.1,0,0.2,0,0.3-0.1c0.1-0.1,0.2-0.2,0.3-0.3 c0.1-0.1,0.1-0.2,0.2-0.3c0-0.1,0.1-0.2,0.1-0.3c0-0.3-0.1-0.5-0.3-0.8c-0.2-0.3-0.3-0.6-0.5-0.9s-0.4-0.6-0.5-0.9 c-0.1-0.2-0.2-0.4-0.2-0.7v-0.2c0.1-0.2,0.1-0.4,0.2-0.6c0.1-0.2,0.2-0.4,0.3-0.6c0.1-0.2,0.2-0.3,0.4-0.5c0.1-0.1,0.3-0.2,0.5-0.3 c0.1-0.1,0.2-0.1,0.3-0.2c0.1-0.1,0.2-0.2,0.2-0.3c0.1-0.1,0.2-0.2,0.3-0.3c0.1-0.1,0.1-0.1,0.2-0.2c0.1-0.1,0.3-0.1,0.5-0.1 c0.2,0,0.4,0,0.5,0L183.8,102.6z"/>
      <path d="M187.3,101.1c0.1,0,0.1,0,0.2,0.1c0.1,0,0.2,0.1,0.3,0.2c0.1,0.1,0.2,0.1,0.2,0.2c0.1,0.1,0.1,0.2,0.1,0.3 c-0.1,0.3-0.2,0.5-0.3,0.7c-0.1,0.2-0.2,0.4-0.3,0.6l-0.2,0.5c0,0-0.1,0.1-0.2,0.3s-0.2,0.3-0.3,0.5c-0.1,0.2-0.2,0.3-0.3,0.5 c-0.1,0.1-0.1,0.2-0.1,0.4l0.2,0.3c0.1,0,0.3-0.1,0.6-0.4c0.2-0.2,0.5-0.5,0.8-0.8c0.3-0.3,0.6-0.6,0.8-0.8 c0.2-0.2,0.4-0.3,0.7-0.4c0.2,0,0.3,0.1,0.4,0.3c0.1,0.2,0.2,0.4,0.2,0.6c0.1,0.2,0.1,0.4,0.1,0.7c0,0.2,0,0.3,0,0.4 c0,0.1,0,0.3-0.1,0.4c-0.1,0.2-0.1,0.4-0.1,0.6c0,0-0.1,0.1-0.1,0.1c0,0,0,0.1,0,0.1c0,0,0,0.1,0.1,0.1c0,0.2-0.1,0.4-0.2,0.6 c-0.1,0.3-0.2,0.5-0.3,0.7c-0.1,0.2-0.2,0.5-0.3,0.7c-0.1,0.1-0.1,0.2-0.2,0.4c-0.1,0.2-0.3,0.4-0.4,0.6c-0.2,0.2-0.3,0.3-0.5,0.5 c-0.2,0.2-0.4,0.3-0.6,0.5c-0.2,0.2-0.5,0.4-0.6,0.6c-0.2,0.2-0.4,0.3-0.6,0.4c-0.2,0.1-0.4,0.2-0.6,0.4c-0.2,0.1-0.3,0.3-0.4,0.5 c-0.1,0.2-0.1,0.4-0.1,0.7v0.4c0,0.1,0,0.3-0.1,0.4c0,0.1-0.1,0.2-0.1,0.4s-0.1,0.3-0.1,0.4c0,0.2,0,0.4,0,0.6c0,0.2,0,0.4,0,0.5 c0,0.1,0,0.2-0.1,0.3c0,0.1-0.1,0.1-0.1,0.2c0,0.1,0,0.1-0.1,0.2v0.4c0,0.2,0,0.4,0,0.6v0.4c0,0.3,0.1,0.4,0.2,0.4 c0.1,0,0.3,0.1,0.5,0.1h0.3c0.2,0,0.4,0.1,0.5,0.2c0.1,0.1,0.2,0.3,0.2,0.5c0,0.1-0.1,0.2-0.1,0.2c-0.1,0.1-0.2,0.2-0.4,0.2 c-0.2,0-0.4,0.1-0.6,0.2c-0.2,0.1-0.4,0.2-0.7,0.1H184c-0.3,0.1-0.5,0.1-0.8,0.1c-0.3,0-0.5,0.1-0.8,0.1c-0.1,0-0.2,0-0.3,0 c-0.1,0-0.1,0-0.2,0.1l-0.2,0.1c-0.1,0-0.1,0-0.2,0c-0.1,0-0.2-0.1-0.2-0.1c-0.1-0.1-0.1-0.1-0.2-0.2c0-0.1-0.1-0.1-0.1-0.2 c0-0.1,0-0.1,0-0.2c0-0.1,0.1-0.2,0.1-0.3c0.1-0.1,0.2-0.1,0.3-0.1c0.1,0,0.2,0,0.3,0h0.3c0.1,0,0.1-0.1,0.2-0.1 c0.1,0,0.1,0,0.2-0.1c0.1,0,0.1-0.1,0.1-0.1c0-0.1,0.1-0.1,0.1-0.2c0-0.1,0.1-0.2,0.1-0.3c0-0.1,0.1-0.3,0.1-0.4l0.1-0.4 c0-0.1,0.1-0.2,0.1-0.2v-0.2c0-0.1,0-0.3,0.1-0.4c0-0.2,0.1-0.4,0.1-0.6c0.1-0.2,0.1-0.6,0.2-0.9c0-0.1,0.1-0.1,0.1-0.2l0.1-0.2 c0,0,0-0.1,0-0.1c0-0.1,0-0.2,0-0.4s0-0.5,0-1l0.2-0.5l0.2-1.2l0.1-0.5c0-0.1,0-0.1,0.1-0.2c0-0.1,0.1-0.2,0.1-0.3 c0-0.1,0.1-0.2,0.1-0.3c0-0.1,0.1-0.2,0.1-0.3c0-0.2,0-0.3,0-0.5c0-0.1,0-0.3,0-0.4c0-0.1,0-0.3,0-0.4c0-0.1,0.1-0.3,0.1-0.5 l0.1-0.4c0-0.1,0.1-0.2,0.1-0.3l0-1c0-0.2-0.1-0.3-0.3-0.3c0,0-0.1,0-0.1,0c-0.1,0-0.2,0.1-0.3,0.1c-0.1,0.1-0.2,0.2-0.3,0.3 c-0.3,0.3-0.5,0.4-0.6,0.4c0,0-0.1,0-0.1,0c0,0,0,0,0-0.1c0,0,0-0.1,0-0.1c0-0.2,0.1-0.5,0.2-0.7c0.2-0.2,0.3-0.4,0.5-0.6 c0.2-0.3,0.4-0.7,0.7-1c0.3-0.3,0.5-0.6,0.8-1c0.3-0.3,0.5-0.6,0.8-1c0.2-0.3,0.4-0.7,0.6-1.1c0.1,0,0.1,0,0.2-0.1 C187.1,101.1,187.2,101.1,187.3,101.1z M188,105.9c-0.1,0-0.3,0.1-0.4,0.1c-0.3,0.2-0.5,0.4-0.8,0.6c-0.1,0.1-0.1,0.2-0.1,0.2 c-0.2,0.3-0.3,0.6-0.4,1c-0.1,0.3-0.2,0.6-0.4,0.9v0.5c0,0.1,0,0.2,0.1,0.3c0,0.1,0.2,0.2,0.4,0.2c0.1,0,0.2-0.1,0.3-0.1 c0.1-0.1,0.3-0.2,0.4-0.3c0.2-0.2,0.3-0.3,0.5-0.5c0.1-0.1,0.2-0.1,0.3-0.2c0.1-0.1,0.2-0.2,0.3-0.3c0.1-0.1,0.1-0.2,0.1-0.3 c0-0.1,0-0.2,0-0.3c0,0,0-0.1,0-0.1c0-0.1,0-0.1,0-0.2c0-0.1,0-0.1-0.1-0.2v-0.6c0-0.1,0-0.2,0-0.3c0-0.1,0-0.2-0.1-0.3 C188.1,105.9,188,105.9,188,105.9z"/>
      <use href="#letter_a"/>
      <use href="#letter_n"/>
    </g>
    <g id="logo_table">
      <path d="M8.3,105.4c0.1,0,0.2,0,0.3,0c0.1,0,0.2,0,0.3,0.1c0.1,0,0.2,0.1,0.2,0.1c0.1,0.1,0.1,0.2,0.1,0.3c0,0.1-0.1,0.2-0.3,0.4 L8.4,107c-0.2,0.2-0.4,0.5-0.6,0.7c-0.1,0.1-0.2,0.3-0.3,0.5c0,0.1,0,0.2,0.1,0.2c0.1,0,0.1,0.1,0.2,0.1c0.1,0,0.1,0,0.2,0 c0.1,0,0.1,0,0.2,0h0.6c0,0,0.1-0.1,0.1-0.1c0.1-0.1,0.1-0.1,0.2-0.1c0.2,0,0.3,0.1,0.4,0.2c0.1,0.2,0.1,0.3,0.1,0.5v0.5 c0,0.1-0.1,0.3-0.2,0.3C9.3,109.9,9.2,110,9,110c-0.2,0-0.3,0.1-0.5,0.1l-0.3,0c-0.1,0-0.2,0-0.3,0c0,0-0.1,0-0.1,0H7.4 c-0.1,0-0.2,0.1-0.3,0.1c-0.1,0.1-0.2,0.2-0.2,0.3c0,0.1,0,0.2,0,0.4c0,0.1,0,0.2,0,0.3c0,0.1,0,0.2,0,0.2s-0.1,0.1-0.1,0.2 c-0.1,0.1-0.1,0.2-0.1,0.3v0.2c0,0.2,0,0.5-0.1,0.7c0,0.2-0.1,0.3-0.2,0.4c-0.1,0.1-0.1,0.1-0.1,0.2c-0.1,0.1-0.1,0.3-0.1,0.4v0.4 c0,0.1,0,0.2,0,0.3c0,0.1,0.1,0.2,0.1,0.3c0.1,0.1,0.1,0.2,0.2,0.2c0.1,0.1,0.2,0.1,0.3,0.1c0.1,0,0.3,0,0.4-0.1 c0.1,0,0.1-0.1,0.1-0.1c0.1,0,0.2,0,0.2,0.1c0.1,0.1,0.1,0.1,0.2,0.2c0.1,0.1,0.1,0.2,0.1,0.3c0,0.1-0.1,0.3-0.1,0.4 c-0.1,0.2-0.2,0.3-0.3,0.5c-0.1,0.1-0.2,0.3-0.4,0.4c-0.1,0.1-0.2,0.2-0.3,0.2c-0.1,0-0.2,0.1-0.2,0.2c-0.1,0.1-0.1,0.2-0.1,0.3 c-0.1,0-0.1,0-0.2,0L6,117.2c-0.1,0-0.2,0.1-0.4,0.1c-0.1,0-0.2,0-0.4,0c-0.1,0-0.1-0.1-0.1-0.2c0,0,0,0,0,0 C5,117,5,116.9,4.9,116.8c-0.1-0.2-0.1-0.3-0.2-0.5s-0.1-0.4-0.2-0.5c0-0.1-0.1-0.2-0.1-0.4v-0.9c0-0.1,0-0.2,0-0.3 c0-0.2,0.1-0.4,0.1-0.6c0-0.2,0.1-0.4,0.1-0.6c0-0.2,0-0.3,0-0.5v-0.3c0.1-0.3,0.2-0.5,0.3-0.7c0.1-0.2,0.1-0.4,0.2-0.6 c0-0.1,0.1-0.2,0.1-0.3V110c0-0.2,0-0.3-0.1-0.3c-0.1,0-0.2-0.1-0.2-0.2c-0.1-0.1-0.1-0.1-0.1-0.2c0-0.1,0-0.2,0.1-0.2 c0.1-0.1,0.1-0.2,0.2-0.2c0.1-0.1,0.2-0.2,0.2-0.3c0.1-0.1,0.1-0.2,0.2-0.3c0-0.1,0.1-0.3,0.2-0.3c0.1-0.1,0.2-0.1,0.3-0.2 c0.1-0.2,0.3-0.3,0.5-0.5c0.2-0.1,0.4-0.3,0.5-0.6c0.1-0.2,0.2-0.3,0.2-0.5c0.1-0.2,0.2-0.3,0.3-0.4c0.2-0.1,0.3-0.1,0.4-0.3 C8.1,105.5,8.2,105.4,8.3,105.4z"/>
      <use href="#letter_a" transform="translate(-181.7 5.4)"/>
      <path d="M19.7,100.7h0.5c0.1,0,0.2,0,0.3,0.1c0.1,0,0.2,0.1,0.3,0.1l0.5-0.1h0.3c0.1,0,0.2,0,0.3,0.1c0.1,0.1,0.2,0.1,0.3,0.2 c0.1,0.1,0.2,0.2,0.2,0.3c0,0.1,0.1,0.2,0.1,0.2c0,0.2,0,0.4-0.1,0.6c-0.1,0.2-0.1,0.4-0.3,0.6c-0.1,0.2-0.3,0.4-0.5,0.5 c-0.2,0.2-0.5,0.3-0.7,0.3h-0.4c-0.2,0-0.3,0-0.4,0.1c-0.2,0.1-0.3,0.2-0.5,0.3c-0.1,0.1-0.3,0.2-0.4,0.4c-0.1,0.1-0.1,0.2-0.1,0.4 c-0.1,0.1-0.2,0.3-0.2,0.4c0,0.2-0.1,0.3-0.2,0.5c-0.1,0.1-0.2,0.3-0.2,0.4c0,0.2,0,0.3,0,0.4l-0.2,0.7c0,0.2,0,0.3-0.1,0.5 c-0.1,0.2-0.2,0.4-0.2,0.6c-0.1,0.2-0.2,0.4-0.2,0.6c-0.1,0.2-0.1,0.5-0.1,0.7v0.4c0,0.1,0,0.1,0.1,0.1c0,0,0.1,0,0.1,0 c0.1,0,0.2-0.1,0.3-0.2s0.2-0.3,0.3-0.5c0.1-0.2,0.3-0.4,0.5-0.5c0.2-0.2,0.5-0.2,0.7-0.2l0.4-0.1c0.2,0,0.5,0.1,0.6,0.2 c0.2,0.2,0.2,0.4,0.2,0.7v0.1l-0.1,0.4l0.1,0.3c0,0.2,0.1,0.3,0.1,0.5c0,0.1,0,0.2-0.1,0.3c0,0.1,0,0.1-0.1,0.2c0,0,0,0.1,0,0.1 c0,0,0,0.1,0,0.1c0,0,0,0.1,0,0.1c0,0.1,0,0.1,0,0.2c0,0.1,0,0.2-0.1,0.3v0.6c0,0.1-0.1,0.2-0.1,0.2c-0.1,0.1-0.1,0.2-0.2,0.4 c-0.1,0.1-0.2,0.3-0.3,0.5c-0.1,0.2-0.2,0.3-0.2,0.5l-0.2,0.8c-0.2,0.3-0.4,0.6-0.6,0.9c-0.2,0.3-0.3,0.4-0.5,0.6 c-0.1,0.1-0.2,0.3-0.3,0.4c-0.1,0.1-0.2,0.1-0.3,0.2c-0.1,0.1-0.1,0.1-0.2,0.2c-0.1,0.1-0.2,0.1-0.3,0.1c-0.2,0-0.3,0-0.5,0 l-0.5,0.1c-0.1,0-0.2,0-0.2-0.1c0-0.1-0.1-0.1-0.1-0.2c0-0.1,0-0.2,0-0.3c0-0.1,0-0.2-0.1-0.3c0-0.1,0-0.1-0.1-0.2 c0-0.1-0.1-0.1-0.1-0.2l-0.2-0.3c-0.1-0.1-0.1-0.2-0.1-0.3c0-0.1,0-0.3,0.1-0.4c0-0.1,0.1-0.2,0.1-0.3v-0.6l0.2-1.7v-0.4l0.3-1.7 V110c0-0.2,0.1-0.4,0.1-0.6c0.1-0.4,0.1-0.7,0.1-1.1v-0.5l0.5-2.1v-0.1c0-0.1,0-0.3,0-0.4c0-0.2,0.1-0.4,0.1-0.6 c0-0.2,0.1-0.5,0.2-0.7l0.1-0.5c0-0.2,0.1-0.3,0.2-0.5c0.1-0.1,0.2-0.3,0.4-0.6L19.7,100.7z M18.7,110.5c-0.2,0-0.3,0.1-0.5,0.4 c-0.2,0.3-0.4,0.6-0.5,0.9c-0.1,0.3-0.3,0.6-0.4,1c-0.1,0.2-0.1,0.4-0.1,0.6v0.7c0,0.1,0,0.2,0,0.3c0,0.1,0,0.2,0.1,0.2 c0,0.1,0.1,0.1,0.1,0.1h0.2c0.2-0.1,0.4-0.2,0.6-0.3c0.2-0.2,0.4-0.3,0.6-0.5c0.2-0.2,0.3-0.4,0.4-0.6c0.1-0.2,0.2-0.4,0.2-0.6 v-0.9l-0.1-0.4l0.1-0.3c0.1-0.3-0.1-0.6-0.5-0.7C18.8,110.5,18.8,110.5,18.7,110.5L18.7,110.5z"/>
      <use href="#letter_l"/>
      <use href="#letter_e"/>
    </g>
    <g id="logo_role">
      <path d="M155.4,7.2c0.1,0,0.2,0,0.3,0.1c0.1,0.1,0.2,0.2,0.3,0.2c0.1,0.1,0.2,0.2,0.3,0.3c0.1,0.1,0.1,0.2,0.1,0.3 c0,0.1,0,0.1,0,0.2c0,0.2,0,0.3,0,0.5c0,0.1,0,0.3-0.1,0.4c0,0.1,0,0.2,0,0.4c0,0.1,0.1,0.1,0.1,0.1c0,0,0.1,0.1,0.1,0.1 c0,0,0.1,0,0.1,0c0.2-0.1,0.3-0.2,0.4-0.3c0.1-0.2,0.3-0.5,0.4-0.7c0.1-0.3,0.3-0.5,0.4-0.7c0.1-0.2,0.2-0.4,0.4-0.5l0.6-0.1 c0.1,0,0.2,0,0.2,0c0.1,0,0.1,0,0.2,0c0.2,0.1,0.4,0.3,0.4,0.6c0.1,0.2,0.1,0.4,0.1,0.6c0,0.2-0.1,0.5-0.2,0.7 c-0.1,0.3-0.3,0.5-0.5,0.7c-0.1,0-0.2,0.1-0.2,0.1c-0.1,0-0.1,0.1-0.2,0.1c0,0-0.1,0-0.1,0c0,0-0.1,0-0.1,0c-0.1,0-0.1,0-0.2,0 c-0.1,0-0.1,0-0.2,0c-0.2,0-0.3,0.1-0.4,0.2c-0.1,0.1-0.3,0.2-0.4,0.4c-0.2,0.3-0.4,0.6-0.5,0.9c-0.1,0.3-0.2,0.6-0.2,0.9 c-0.1,0.1-0.2,0.2-0.3,0.3c-0.1,0.1-0.2,0.3-0.3,0.4c-0.1,0.2-0.1,0.3-0.1,0.5c0,0.2,0,0.4-0.1,0.5c0,0.2,0,0.3,0,0.5 c0,0.2,0,0.4-0.1,0.6c0,0.2-0.1,0.4-0.1,0.6c0,0.2-0.1,0.3-0.2,0.5c-0.1,0.1-0.2,0.1-0.3,0.2c-0.1,0-0.3,0.1-0.4,0.1 c-0.2,0-0.3,0.1-0.5,0.1c-0.1,0-0.2-0.1-0.2-0.1c0,0-0.1-0.1-0.1-0.1l-0.3-0.5c0-0.1,0-0.3,0-0.4c0-0.2,0.1-0.4,0.1-0.6 c0-0.2,0.1-0.4,0.1-0.6c0-0.1,0-0.2,0.1-0.3c0.3-0.4,0.4-0.8,0.5-1.3c0.1-0.4,0.2-0.9,0.3-1.3l-0.1-1.2c-0.1-0.2-0.1-0.2-0.2-0.2 c-0.1,0-0.2,0-0.3,0c-0.1,0-0.3,0.1-0.4,0.2c-0.1,0.1-0.2,0.1-0.2,0.2c-0.1,0.1-0.1,0.1-0.2,0.2c-0.1,0.1-0.2,0.1-0.4,0.1 c-0.1,0-0.2-0.1-0.2-0.2c0-0.1,0-0.2-0.1-0.3c0-0.1,0-0.2,0.1-0.3c0.1-0.1,0.2-0.2,0.2-0.3c0.1-0.1,0.2-0.2,0.4-0.3 c0.1-0.1,0.2-0.2,0.4-0.3c0.1-0.2,0.3-0.3,0.4-0.5c0.1-0.2,0.2-0.4,0.3-0.5c0.1-0.2,0.2-0.3,0.4-0.4C155.1,7.3,155.3,7.2,155.4,7.2 z"/>
      <path d="M162.5,7.3c0.2,0,0.4,0,0.6,0c0.2,0,0.4,0,0.6,0.1c0.2,0,0.3,0.1,0.4,0.2c0.1,0.1,0.1,0.3,0.2,0.5c0,0,0.1,0.1,0.2,0.2 c0.1,0.1,0.1,0.2,0.2,0.3c0.1,0.1,0.1,0.2,0.1,0.3c0,0.1,0.1,0.2,0.1,0.3l-0.1,1.6c0,0.8-0.3,1.6-0.9,2.2c-0.1,0.1-0.2,0.2-0.2,0.3 c0,0.1-0.1,0.2-0.1,0.4c0,0.1-0.1,0.2-0.1,0.4c-0.1,0.1-0.1,0.3-0.2,0.4c-0.1,0.1-0.2,0.2-0.2,0.3c-0.1,0.1-0.2,0.2-0.3,0.4 c-0.1,0.1-0.2,0.2-0.3,0.3c-0.1,0.1-0.2,0.2-0.4,0.2c-0.2,0.1-0.3,0.2-0.5,0.3c-0.1,0.1-0.2,0.1-0.3,0.2c-0.1,0-0.2,0.1-0.3,0.1 c-0.1,0-0.2,0-0.3,0c-0.2,0-0.4,0-0.5-0.1c-0.2-0.1-0.3-0.2-0.4-0.3c-0.1-0.1-0.2-0.3-0.3-0.5c-0.1-0.2-0.1-0.4-0.1-0.5v-1.2 c0-0.1,0-0.1-0.1-0.2c-0.1-0.2-0.1-0.3-0.1-0.5c0-0.4,0.1-0.9,0.3-1.3c0.2-0.5,0.4-1,0.6-1.5c0.2-0.4,0.5-0.9,0.7-1.3 c0.2-0.3,0.3-0.5,0.6-0.7c0.1-0.1,0.2-0.2,0.3-0.3c0.1-0.1,0.2-0.2,0.3-0.3c0.1-0.1,0.2-0.2,0.3-0.2C162.3,7.3,162.4,7.3,162.5,7.3 z M162.6,9.4c-0.2,0-0.4,0.1-0.6,0.2c-0.2,0.2-0.4,0.3-0.6,0.6c-0.2,0.2-0.3,0.4-0.5,0.6c-0.1,0.1-0.2,0.3-0.3,0.5l-0.2,0.7 c0,0.2-0.1,0.3-0.1,0.5c0,0.1,0,0.2,0,0.3v0.3c0.1,0.1,0.1,0.1,0.1,0.2c0,0.1,0.1,0.2,0.1,0.3c0.1,0.1,0.1,0.2,0.2,0.3 c0.1,0.1,0.2,0.1,0.3,0.1c0.2-0.1,0.5-0.2,0.7-0.3c0.2-0.1,0.3-0.2,0.5-0.3c0.1-0.1,0.3-0.2,0.3-0.3c0.1-0.2,0.2-0.4,0.2-0.6 s0.2-0.4,0.3-0.7c0-0.1,0-0.2,0.1-0.3c0.1-0.1,0.1-0.2,0.1-0.3v-0.5c0-0.1,0-0.2,0-0.3c0-0.2-0.1-0.3-0.1-0.5 c-0.1-0.2-0.1-0.3-0.2-0.4C162.9,9.4,162.8,9.4,162.6,9.4L162.6,9.4z"/>
      <use href="#letter_l" transform="translate(143.9 -100.8)"/>
      <use href="#letter_e" transform="translate(143.8 -100.9)"/>
    </g>
  </g>
  <g id="logo_htmhell">
    <use href="#letter_H"/>
    <path d="M91.1,165.3c0.1,0,0.1,0.1,0.2,0.2c0.1,0.2,0.1,0.4,0.2,0.5c0.1,0.2,0.1,0.4,0.2,0.6c0,0.1,0.1,0.3,0.1,0.4v2.2 c0,0.1,0,0.2,0,0.5c0,0.2,0,0.5-0.1,0.7c0,0.2-0.1,0.4-0.3,0.6c-0.1,0.2-0.3,0.3-0.5,0.3c-0.3,0-0.5-0.1-0.7-0.2 c-0.2-0.2-0.3-0.4-0.3-0.6c-0.1-0.2-0.1-0.5-0.2-0.8c0-0.3-0.1-0.5-0.2-0.8c-0.1-0.2-0.3-0.4-0.5-0.6c-0.3-0.2-0.6-0.3-1-0.2h-1.7 c-0.1,0-0.2,0-0.3,0c-0.1,0-0.2,0.1-0.3,0.1l-0.4,0.1c-0.4,0-0.7,0.1-1,0.4c-0.2,0.3-0.4,0.7-0.4,1v1.5c0,0.2,0,0.3,0,0.4 c0,0.1,0.1,0.3,0.2,0.4l-0.2,1.2v5c0,0.3,0,0.7,0.1,1c0,0.2,0.1,0.4,0.2,0.6c0.1,0.2,0.2,0.3,0.3,0.4c0.1,0.1,0.2,0.2,0.3,0.3 c0.3,0.1,0.6,0.2,0.8,0.3c0.3,0.1,0.6,0.1,0.9,0.1c0.5,0.1,1,0.3,1.4,0.6c0.3,0.2,0.4,0.5,0.5,0.9c0,0.3-0.1,0.6-0.3,0.8 c-0.3,0.3-0.7,0.4-1.1,0.5c-0.2,0-0.4,0-0.5-0.1c-0.4-0.1-0.7-0.2-1.1-0.2c-0.2,0-0.5,0-0.7,0c-0.2,0-0.5,0-0.7-0.1 c-0.2,0-0.4-0.1-0.6-0.2h-2.9c-0.3,0-0.5,0.1-0.7,0.2c-0.4,0.1-0.8,0.2-1.3,0.2c-0.3,0-0.6,0-0.9,0c-0.3,0-0.5,0-0.7,0 s-0.4,0-0.5,0c-0.1,0-0.2,0-0.2,0.1c-0.1,0.1-0.3,0.1-0.6,0.1c-0.1,0-0.1-0.1-0.1-0.1c0,0-0.1-0.1-0.1-0.1c0-0.1,0-0.2,0-0.2 c0.1-0.2,0.2-0.5,0.3-0.7c0.1-0.2,0.2-0.4,0.3-0.6c0.1-0.2,0.3-0.4,0.4-0.6c0.3-0.1,0.6-0.2,0.8-0.3c0.2-0.1,0.4-0.2,0.6-0.2 c0.1,0,0.3-0.1,0.4-0.1l1.5-0.3c0.1,0,0.3-0.1,0.3-0.3c0.1-0.2,0.1-0.4,0.2-0.6c0-0.3,0.1-0.6,0.1-1v-3.2c0-0.1,0.1-0.3,0.1-0.4 l0.1-0.2v-3.9c0-0.2,0-0.3,0-0.5c0-0.2,0-0.3,0-0.5c0-0.1,0-0.2-0.1-0.3c-0.1-0.1-0.1-0.3-0.2-0.4c-0.1-0.1-0.2-0.2-0.4-0.3 c-0.1-0.1-0.3-0.1-0.4-0.1h-3.4c-0.3,0-0.7,0.1-1,0.2c-0.2,0.1-0.4,0.3-0.5,0.6c-0.1,0.2-0.2,0.5-0.3,0.8c-0.1,0.3-0.1,0.5-0.2,0.8 c-0.1,0.2-0.2,0.4-0.4,0.6c-0.2,0.2-0.5,0.2-0.7,0.2c-0.3,0-0.5-0.1-0.7-0.3c-0.1-0.2-0.2-0.5-0.2-0.7c0-0.1,0-0.2,0-0.4 c0-0.2,0-0.4,0.1-0.5c0-0.2,0.1-0.4,0.1-0.5c0-0.1,0-0.2,0-0.3l0.4-1.5c0-0.1,0-0.3,0-0.4c0-0.2,0.1-0.5,0.2-0.7 c0.1-0.2,0.1-0.4,0.3-0.6c0.1-0.2,0.2-0.3,0.4-0.3c0.2,0,0.4,0,0.6,0.2l0.5,0.3c0.1,0.1,0.2,0.2,0.4,0.2c0.2,0.1,0.4,0.1,0.5,0.1 c0.2,0,0.4,0,0.6-0.1c0.2,0,0.4-0.1,0.6-0.1h0.6c0.1,0,0.1,0.1,0.2,0.1c0.1,0,0.2,0,0.3,0c0.1,0,0.2,0,0.3,0h4.6l0.8-0.2l0.9,0.2 c0.4,0,0.9,0,1.3-0.1c0.4-0.1,0.9-0.1,1.3-0.1h1.5c0.3,0,0.7,0,1-0.2c0.3-0.1,0.5-0.2,0.7-0.3c0.2-0.1,0.4-0.2,0.5-0.3 C90.9,165.4,91,165.3,91.1,165.3z"/>
    <path d="M114.6,165.3c0.7,0,1.2,0.2,1.4,0.6c0.2,0.4,0.3,0.8,0.3,1.2c0,0.1-0.1,0.2-0.1,0.3c-0.1,0.1-0.2,0.3-0.3,0.4 c-0.1,0.1-0.3,0.2-0.4,0.3c-0.1,0.1-0.2,0.1-0.3,0.1h-0.5c-0.1,0-0.2,0-0.4,0c-0.2,0-0.4,0.1-0.6,0.2c-0.2,0-0.5,0.1-0.7,0.2 c-0.2,0.1-0.3,0.3-0.4,0.5c-0.1,0.2-0.1,0.4-0.1,0.7c0,0.2,0,0.5,0,0.7v4.2c0,0.2,0,0.4,0.1,0.5c0.1,0.1,0.1,0.2,0.2,0.3 c0.1,0.1,0.2,0.2,0.2,0.4c0,0.1,0,0.3,0,0.4l-0.1,1c0,0.3,0,0.6,0.1,0.8c0.1,0.2,0.1,0.4,0.1,0.6l0.4,0.9v0.9 c0,0.3,0.2,0.7,0.5,0.8c0.4,0.1,0.8,0.3,1.2,0.4c0.4,0.1,0.8,0.2,1.2,0.3c0.3,0.1,0.5,0.3,0.5,0.6c0,0.6-0.3,0.9-0.9,0.9h-1.1 c-0.1,0-0.3,0-0.5,0c-0.2,0-0.3,0.1-0.5,0.2l-2.5-0.2H110c-0.1,0-0.2,0-0.4,0l-0.7,0.1c-0.3,0-0.5,0-0.7,0.1s-0.4,0-0.4,0 c-0.2,0-0.4,0-0.7-0.1c-0.1,0-0.2-0.2-0.2-0.5c0-0.3,0.1-0.6,0.2-0.9c0.2-0.3,0.5-0.5,0.9-0.5h1.8c0.1,0,0.3,0,0.3-0.1 c0.1-0.1,0.2-0.2,0.2-0.3c0-0.1,0-0.3,0.1-0.4c0-0.1,0-0.2,0-0.3c0-0.3-0.1-0.6-0.2-1c-0.1-0.2-0.1-0.5-0.2-0.8v-2.9 c0-0.1,0-0.3,0-0.4c0-0.2-0.1-0.4-0.1-0.6c-0.1-0.2-0.1-0.3-0.2-0.5c-0.1-0.1-0.1-0.2-0.2-0.2c-0.1,0-0.1,0.1-0.3,0.3 c-0.1,0.2-0.3,0.4-0.5,0.7l-0.6,0.9c-0.2,0.3-0.4,0.7-0.6,1c-0.2,0.3-0.4,0.6-0.5,0.9c-0.2,0.3-0.3,0.5-0.4,0.6 c-0.2,0.1-0.3,0.3-0.4,0.5c-0.1,0.2-0.2,0.4-0.3,0.6c-0.1,0.2-0.2,0.4-0.2,0.6c0,0.2-0.1,0.4-0.2,0.6c-0.2,0.3-0.3,0.5-0.5,0.7 s-0.3,0.4-0.4,0.5c-0.1,0.2-0.2,0.4-0.3,0.6c-0.1,0.1-0.2,0.1-0.3,0.1c-0.2,0-0.4-0.1-0.5-0.2c-0.1-0.2-0.2-0.5-0.4-0.7l-0.2-1.9 c-0.1-0.4-0.3-0.7-0.5-1.1c-0.2-0.4-0.4-0.8-0.5-1.2c-0.1-0.4-0.3-0.8-0.4-1.2c-0.1-0.4-0.2-0.7-0.2-1.1v-0.3c0-0.1,0-0.3-0.1-0.4 c-0.1-0.2-0.1-0.4-0.2-0.6c-0.1-0.2-0.2-0.3-0.3-0.5c-0.1-0.1-0.2-0.2-0.3-0.2s-0.1,0.1-0.2,0.3c-0.1,0.2-0.2,0.4-0.3,0.6 c-0.1,0.2-0.2,0.5-0.2,0.7c0,0.2-0.1,0.4-0.1,0.6v2.1c-0.1,0.5-0.2,1-0.2,1.4c-0.1,0.4-0.1,0.7-0.2,1.1c0,0.2-0.1,0.4-0.1,0.6 c0,0.6,0.1,1,0.3,1.2c0.2,0.2,0.4,0.3,0.7,0.4c0.2,0.1,0.5,0.1,0.7,0.2c0.2,0.1,0.3,0.2,0.3,0.6c0,0.2,0,0.4-0.1,0.5 c-0.1,0.1-0.2,0.2-0.3,0.2c-0.1,0.1-0.2,0.1-0.4,0.1c-0.1,0-0.2,0-0.3,0h-1.2l-2.9-0.5h-1.1c-0.1,0-0.1,0.1-0.2,0.1 c-0.1,0.1-0.3,0.1-0.4,0.1h-0.6c-0.1,0-0.2,0-0.3,0c-0.1,0-0.2-0.1-0.4-0.1c-0.1,0-0.2-0.1-0.3-0.2c-0.1,0-0.1-0.1-0.1-0.2 c0-0.2,0.1-0.4,0.2-0.5c0.2-0.2,0.3-0.3,0.5-0.4c0.2-0.1,0.4-0.2,0.6-0.2c0.1,0,0.2-0.1,0.4-0.1h0.6c0.1,0,0.2,0,0.4,0 c0.2,0,0.4,0,0.6-0.1c0.2,0,0.5-0.1,0.8-0.1c0.2-0.2,0.3-0.5,0.4-0.7c0.1-0.4,0.3-0.7,0.4-1.1c0.1-0.4,0.2-0.7,0.3-1 c0.1-0.2,0.1-0.4,0.1-0.6v-1.4c0.1-0.1,0.1-0.2,0.2-0.3c0-0.1,0.1-0.3,0.1-0.4c0-0.2,0-0.3,0-0.5v-1.4c0-0.1,0-0.2,0-0.4 c0-0.2,0.1-0.3,0.1-0.5c0-0.2,0.1-0.4,0.2-0.6v-0.9l0.1-0.4c0-0.1,0.1-0.2,0.1-0.3c0-0.1,0-0.3,0-0.4v-0.7c0-0.1,0-0.3-0.1-0.4 c-0.1-0.2-0.1-0.4-0.2-0.7l-0.3-0.9c-0.1-0.2-0.3-0.3-0.4-0.4c-0.2-0.1-0.4-0.2-0.5-0.4c-0.1-0.1-0.3-0.2-0.4-0.3 c-0.2-0.1-0.3-0.2-0.4-0.4v-0.3c0-0.1,0.1-0.2,0.2-0.3c0.1-0.1,0.2-0.1,0.4-0.2c0.2,0,0.3-0.1,0.5-0.1h0.8c0.1,0,0.3,0,0.4,0 c0.1,0,0.1-0.1,0.2-0.1c0-0.1,0.1-0.1,0.1-0.1c0,0,0.1-0.1,0.1,0h2l0.9,0.3c0.2,0.5,0.4,1.2,0.7,1.9c0.2,0.8,0.5,1.6,0.7,2.4 c0.2,0.9,0.5,1.7,0.7,2.6c0.2,0.8,0.5,1.6,0.7,2.3c0.2,0.7,0.4,1.2,0.6,1.6c0.2,0.4,0.3,0.6,0.4,0.6c0-0.1,0.1-0.2,0.2-0.3 c0-0.1,0.1-0.2,0.2-0.3c0.1-0.1,0.1-0.2,0.2-0.2c0.3-1.1,0.7-2.2,1.2-3.2c0.5-1.1,1-2.2,1.4-3.2c0-0.4,0.1-0.8,0.4-1.1 c0.3-0.3,0.5-0.7,0.8-1.1c0.1-0.2,0.1-0.4,0.1-0.6c0-0.2,0.1-0.5,0.1-0.7c0-0.2,0.1-0.5,0.3-0.7c0.1-0.2,0.4-0.4,0.6-0.4h1.2 l0.4,0.2c0.3,0,0.5,0,0.8-0.1c0.2-0.1,0.5-0.1,0.7-0.2S114.4,165.4,114.6,165.3z"/>
    <use href="#letter_H" transform="translate(66.5 0)"/>
    <g transform="scale(1.7 1.7)">
      <use href="#letter_e" transform="translate(55 -9)"/>
      <use href="#letter_l" transform="translate(65.6 -8.8)"/>
      <use href="#letter_l" transform="translate(71 -8.8)"/>
    </g>
  </g>
  <g id="logo_heaven_add_on">
    <g id="logo_heaven" transform="translate(-26 97) rotate(-20)">
      <use href="#letter_H" transform="translate(95.5 -2) scale(0.62 0.62)"/>
      <use href="#letter_e" transform="translate(114 -5.5)"/>
      <use href="#letter_a" transform="translate(-44.6 0)"/>
      <use href="#letter_v" transform="translate(100.5 95)"/>
      <use href="#letter_e" transform="translate(134 -6)"/>
      <use href="#letter_n" transform="translate(-30.5 -0.5)"/>
    </g>
    <path id="logo_heaven_bone" d="M122.4,191.4c0,0,0-0.1,0-0.2c0-0.1,0.1-0.3,0.2-0.5c0.1-0.2,0.3-0.4,0.5-0.6c0.2-0.2,0.5-0.4,0.7-0.7 c0.2-0.1,0.4-0.3,0.6-0.4c0.2-0.1,0.5-0.2,0.8-0.3c0.3-0.1,0.5-0.2,0.8-0.4c0.3-0.1,0.5-0.3,0.8-0.6l2.7-2.4l1.9-1.7l9.4-8.3 c0.1-0.1,0.3-0.3,0.6-0.6c0.3-0.3,0.6-0.5,0.8-0.8c0.3-0.2,0.5-0.5,0.8-0.7c0.2-0.2,0.4-0.4,0.5-0.5l2.4-2L156,162l1.4-1.2l6.9-6.1 c0.2-0.2,0.4-0.4,0.7-0.7c0.3-0.3,0.6-0.6,0.8-0.9c0.1-0.3,0.3-0.7,0.5-1.1c0.2-0.4,0.5-0.8,0.9-1.2c0.4-0.4,0.8-0.6,1-0.7 c0.3-0.1,0.5-0.1,0.6,0c0.1,0.1,0.2,0.2,0.3,0.3c0.1,0.1,0.1,0.3,0.2,0.3c0.2,0.2,0.4,0.4,0.5,0.5c0.2,0.1,0.3,0.3,0.3,0.6 c0.1,0.2,0.4,0.3,0.7,0.4c0.3,0.1,0.5,0.2,0.6,0.3c0.1,0.1,0,0.3-0.2,0.6c-0.2,0.3-0.5,0.5-0.7,0.7c-0.4,0.3-0.7,0.6-1.1,0.8 c-0.3,0.2-0.6,0.3-0.9,0.4c-0.3,0.1-0.6,0.2-0.8,0.3c-0.3,0.1-0.5,0.3-0.8,0.6l-1.9,1.7l-6.4,5.6l-10.1,8.9l-7.5,6.6l-8.4,7.5 l-1.1,0.9c-0.3,0.3-0.6,0.5-0.9,0.7c-0.3,0.2-0.4,0.4-0.5,0.5c-1,1-1.6,1.6-1.9,2c-0.3,0.4-0.5,0.7-0.7,0.9 c-0.1,0.2-0.3,0.5-0.4,0.8c-0.2,0.3-0.6,0.9-1.3,1.6c-0.2,0.2-0.4,0.3-0.5,0.4c-0.3,0.2-0.5,0.3-0.6,0.2l-0.3-0.3l-0.2-0.3 c-0.1-0.1-0.1-0.1-0.1-0.2c0-0.1,0-0.2,0-0.3c0-0.1,0-0.2,0-0.4c-0.1-0.1-0.2-0.2-0.3-0.3c-0.1-0.1-0.3-0.1-0.4-0.2 c-0.2-0.1-0.3-0.1-0.5-0.1l-0.1-0.1L122.4,191.4z"/>
  </g>
</svg>