<svg xmlns="http://www.w3.org/2000/svg" viewBox="0 0 210 197">
  <defs>
    <path id="q" d="M54.4 166h.3l.6.2.8.2.9-.3h1.8c.2 0 .4.1.5.3l.1.3c0 .3 0 .6-.2.9-.1.2-.3.3-.5.3l-.6.1-.6.1-.5.5-.2 1.1.1.8.1.8v.9c0 .4.1.8.4 1.1.3.3.6.5 1 .5l.4-.1.2-.1 1.1.2H62c.3 0 .5.1.7.3h.5l.2-.2.2-.1h1.2l.3-.4.2-.5v-2.4L65 169v-.5l-.2-.4a.8.8 0 0 0-.5-.2l-.5-.3c-.2-.2-.2-.4-.2-.6 0-.3.1-.5.4-.7.2-.2.5-.3.8-.3l.8.3.8.2.9.1h1.2l.7.1.7.2.6.5c.2.2.2.5.2.7l-.2.3-.7.2H69c-.1 0-.3.1-.5.4a1 1 0 0 0-.3.7v3.2l.1.7.1.7-.1.3-.2.3-.2.6v1.7l.1.9.1.8-.1.5-.1.7v.8l.1.3c.1.3.3.5.5.6l.9.4.9.4c.3.1.4.3.4.4l-.1.4-.3.3-.4.2h-3.4l-1.4-.3-.9.3h-.3l-.4-.1-.3-.2-.1-.4.3-.6.7-.5.7-.7c.2-.3.3-.7.3-1.1v-3.5l-.2-.5c-.1-.2-.2-.3-.4-.3h-2l-.6-.2-.6-.2h-2.9c-.4 0-.7.1-1 .3-.3.2-.4.6-.4.9v2l-.2.6v.3l.1.5.1.6c-.1.2-.1.5.1.7l.7.6.8.5c.2.1.4.3.4.6l-.1.2-.3.2-.4.1h-.3l-.4-.1-.6-.2-.7-.2-.7-.1-.3.2-.3.1H53l-.8-.2c-.3-.1-.4-.4-.4-.7l.1-.8c.1-.3.3-.4.6-.4l.5-.3.6-.3c.2-.1.3-.3.3-.5v-2l-.2-.8-.2-1.2v-1.7l.1-.5.1-.5v-.3l-.3-1.4.2-.6.2-.5v-2c0-.1-.1-.3-.3-.3l-.8-.2-.8-.2-.3-.2c0-.4.1-.7.3-1 .2-.3.4-.4.7-.4l1.5-.1.3-.3z"/>
    <path id="r" d="m91.1 165.3.2.2.2.5.2.6.1.4v2.7l-.1.7-.3.6c-.1.2-.3.3-.5.3l-.7-.2-.3-.6-.2-.8-.2-.8-.5-.6c-.3-.2-.6-.3-1-.2h-2l-.3.1-.4.1c-.4 0-.7.1-1 .4-.2.3-.4.7-.4 1v1.9l.2.4-.2 1.2v5l.1 1 .2.6.3.4.3.3.8.3.9.1c.5.1 1 .3 1.4.6.3.2.4.5.5.9 0 .3-.1.6-.3.8-.3.3-.7.4-1.1.5l-.5-.1-1.1-.2h-.7l-.7-.1-.6-.2h-2.9l-.7.2-1.3.2h-2.1l-.2.1-.6.1-.1-.1-.1-.1v-.2l.3-.7.3-.6.4-.6.8-.3.6-.2.4-.1 1.5-.3c.1 0 .3-.1.3-.3l.2-.6.1-1v-3.2l.1-.4.1-.2v-4.9l-.1-.3-.2-.4-.4-.3-.4-.1H76l-1 .2a1 1 0 0 0-.5.6l-.3.8-.2.8a2 2 0 0 1-.4.6c-.2.2-.5.2-.7.2a1 1 0 0 1-.7-.3l-.2-.7v-.4l.1-.5.1-.5v-.3l.4-1.5v-.4l.2-.7.3-.6c.1-.2.2-.3.4-.3s.4 0 .6.2l.5.3.4.2.5.1.6-.1.6-.1h.6l.2.1H82.7l.8-.2.9.2 1.3-.1 1.3-.1h1.5c.3 0 .7 0 1-.2l.7-.3.5-.3.4-.2z"/>
    <path id="s" d="M114.6 165.3c.7 0 1.2.2 1.4.6l.3 1.2-.1.3-.3.4-.4.3-.3.1h-.9l-.6.2-.7.2-.4.5-.1.7v4.9l.1.5.2.3.2.4v.4l-.1 1 .1.8.1.6.4.9v.9c0 .3.2.7.5.8l1.2.4 1.2.3c.3.1.5.3.5.6 0 .6-.3.9-.9.9h-1.6l-.5.2-2.5-.2H109.6l-.7.1-.7.1c-.2.1-.4 0-.4 0l-.7-.1c-.1 0-.2-.2-.2-.5l.2-.9c.2-.3.5-.5.9-.5h1.8l.3-.1.2-.3.1-.4v-.3l-.2-1-.2-.8v-3.3l-.1-.6-.2-.5-.2-.2-.3.3-.5.7-.6.9-.6 1-.5.9-.4.6-.4.5-.3.6-.2.6-.2.6-.5.7-.4.5-.3.6-.3.1a.8.8 0 0 1-.5-.2l-.4-.7-.2-1.9-.5-1.1-.5-1.2-.4-1.2-.2-1.1v-.3l-.1-.4-.2-.6-.3-.5-.3-.2-.2.3-.3.6-.2.7-.1.6v2.1l-.2 1.4-.2 1.1-.1.6c0 .6.1 1 .3 1.2l.7.4.7.2c.2.1.3.2.3.6l-.1.5-.3.2-.4.1h-1.5l-2.9-.5h-1.1l-.2.1-.4.1H93.3l-.4-.1-.3-.2-.1-.2.2-.5.5-.4.6-.2.4-.1h1l.6-.1.8-.1.4-.7.4-1.1.3-1 .1-.6V177l.2-.3.1-.4V174l.1-.5.2-.6v-.9l.1-.4.1-.3v-1.1l-.1-.4-.2-.7-.3-.9-.4-.4-.5-.4-.4-.3a.8.8 0 0 1-.4-.4v-.3l.2-.3.4-.2.5-.1H98.6l.2-.1.1-.1s.1-.1.1 0h2l.9.3.7 1.9.7 2.4.7 2.6.7 2.3.6 1.6.4.6.2-.3.2-.3.2-.2c.3-1.1.7-2.2 1.2-3.2l1.4-3.2c0-.4.1-.8.4-1.1l.8-1.1.1-.6.1-.7c0-.2.1-.5.3-.7.1-.2.4-.4.6-.4h1.2l.4.2.8-.1.7-.2.3-.1z"/>
    <path id="i" d="m195.9 102.6.6.2.2.6-.1.3-.1.6-.2.6-.1.5v.3l-.1.4c-.1.1-.2.2-.1.4v.4l-.1 1v1.2l.1.2.2.1.3-.4.3-.2.3-.3.3-.3.2.1.1.2-.1.1-.1.2-.3.6-.4.5-.5.5-.5.6-.4.6-.1.3-.2.3-.3.1a.2.2 0 0 1-.2-.2l-.1-.6.1-.6.1-.6.1-.5v-1l-.1-.1h-.1l-.3.3-.5.7-.6.8-.5.6-.2.2-.3.3-.3.2-.3.1-.4-.2-.3-.4-.1-.5v-.4l-.1-1.3.3-2.1.1-.3.1-.4.2-.5.2-.4 1-1.2.5-.5.4-.2.4-.1.5-.2.3-.1.3-.2h.8l.1-.3zm-2.3 2-.6.6a3 3 0 0 0-.5.7l-.3.7-.1.5v.8l.1.5.4.2c.2 0 .3-.1.6-.4l.6-.9.5-1 .2-.6v-1l-.2-.4-.7.3z"/>
    <path id="l" d="M19.7 100.7h.5l.3.1.3.1.5-.1h.3l.3.1.3.2.2.3.1.2-.1.6-.3.6-.5.5a1 1 0 0 1-.7.3h-.4l-.4.1-.5.3-.4.4-.1.4-.2.4-.2.5-.2.4v.4l-.2.7-.1.5-.2.6-.2.6-.1.7v.4l.1.1h.1l.3-.2.3-.5.5-.5c.2-.2.5-.2.7-.2l.4-.1.6.2c.2.2.2.4.2.7v.1l-.1.4.1.3.1.5-.1.3-.1.2v.5l-.1.3v.6l-.1.2-.2.4-.3.5-.2.5-.2.8-.6.9-.5.6-.3.4-.3.2-.2.2-.3.1H17l-.5.1-.2-.1-.1-.2v-.3l-.1-.3-.1-.2-.1-.2-.2-.3-.1-.3.1-.4.1-.3v-.6l.2-1.7v-.4l.3-1.7v-.6l.1-.6.1-1.1v-.5l.5-2.1v-.5l.1-.6.2-.7.1-.5.2-.5.4-.6 1.7-1.6zm-1 9.8c-.2 0-.3.1-.5.4l-.5.9-.4 1-.1.6v1l.1.2.1.1h.2l.6-.3.6-.5.4-.6.2-.6v-.9l-.1-.4.1-.3c.1-.3-.1-.6-.5-.7l-.2.1z"/>
    <path id="d" d="M50.3.5h.5l.1.1.2.3.1.3v.5c0 .4-.1.8-.4 1.1-.3.3-.7.5-1.1.4l-.1-.1-.2-.1h-.3l-.2.1-.2.4-.3.6-.2.6-.1.4-.1.5-.2.6-.2.5-.1.6-.1.7-.2.5-.2.8-.1.8-.1.4v.6l-.1.4-.1.4v.2l-.1.4v.3l.1.2v.8l.2.1.5-.2.4-.4.4-.4.2-.2.2.1.1.3-.3.4-.2.4-.1.5-.2.4-.3.4-.4.4-.3.5-.1.1-.2.2-.2.1-.2.1-.7.5c-.2.1-.3.1-.3-.1h-.3l-.1-.4v-1.7l-.1-.2-.4.2-.5.5-.4.4-.4.6-.4.5-.3.2-.4-.1-.3-.2-.2-.3-.1-.4V14.7l.1-.5.1-.6v-.2l.1-.2.1-.3v-.1l.1-.4.1-.3v-.2l.2-.5.2-.5c0-.3.1-.5.3-.7l.5-.5.6-.4.6-.5h.2l.3-.2.5-.1.3-.1.2-.2.1-.4.1-.8.2-1.1.1-.7v-.3l.1-.4.1-.4.1-.2V3.6l.1-.2.1-.3.2-.4.2-.3.4-.6.5-.6.5-.5.5-.3h.1l.3-.1.2-.1.7.3zM45 9.8l-.7.2-.6.6-.4.7-.2.6v1l.2.6c.1.1.3.2.6.1s.5-.2.7-.5l.6-.9c.2-.3.3-.7.3-1l.1-1-.1-.3-.1-.2-.4.1z"/>
    <path id="n" d="m30.4 108.2.6.1.4.4.2.6.1.7c0 .3-.1.6-.4.8a3 3 0 0 1-.7.5l-.7.4-.7.4-.6.5c-.2.2-.2.5-.2.7v.8l.1.6c.1.2.2.3.4.3l.1-.1.3-.2.3-.2.2-.2.4-.2c.1 0 .1-.1.2 0h.2l.1.3c0 .3-.2.6-.3.8l-.7.7-.7.6-.5.3-.6.3h-.5l-.3-.1-.3-.3-.2-.4-.1-.3v-.3l-.1-.3-.1-.1.1-.4v-.7l.1-.7.1-.7.1-.4.1-.1v-.2l.1-.2.1-.5.1-.3.3-.6c0-.3.2-.6.4-.8l.8-.8 1-.6c.2-.1.5-.2.8-.1zm-.8 1.3-.2.1-.2.3-.2.4-.1.2-.1.2v.2l.1.1h.3l.4-.2.3-.3.2-.3v-.3l-.1-.2-.1-.1-.2-.1h-.1z"/>
    <path id="e" d="m51 7.7.5.2.2.5-.2.5.1.3v.2l-.1.7-.1.7V11.1l-.1.2-.1.3v.2l-.1.3-.1.3-.1.3.1.4v.2l.1.2.2.2.2.1.3-.1.2-.2.2-.2.2-.1h.3l.1.1v.3l-.2.2-.4.3-.4.4-.3.2-.2.4-.4.6-.5.6-.4.2-.3-.1-.3-.2-.2-.3-.1-.3V15l-.1-.1v-.3l.1-.5v-.9l.1-.4.1-.4v-.2l.1-.4.2-.5.2-.6.1-.5-.1-.3-.4-.2-.2.1-.5.1-.1-.1-.1-.3v.1l.3-.5.7-.6.8-.6.7-.2zm0-4.3h.2l.2-.1.2-.1h.2c.2 0 .3.2.3.3l.2.5v.6l-.1.3-.1.4-.1.3-.2.3c.2 0 .1.1 0 .2l-.3.1c-.4 0-.8-.3-1-.6l-.1-.3v-.4c0-.3 0-.6.2-.8l.4-.7z"/>
    <path id="p" d="M162.5 7.3h.6l.6.1.4.2.2.5.2.2.2.3.1.3.1.3-.1 1.6c0 .8-.3 1.6-.9 2.2l-.2.3-.1.4-.1.4-.2.4-.2.3-.3.4-.3.3-.4.2-.5.3-.3.2-.3.1h-.3l-.5-.1-.4-.3-.3-.5-.1-.5v-1.2l-.1-.2-.1-.5c0-.4.1-.9.3-1.3l.6-1.5.7-1.3.6-.7.3-.3.3-.3.3-.2.2-.1zm.1 2.1-.6.2-.6.6-.5.6-.3.5-.2.7-.1.5v.6l.1.2.1.3.2.3.3.1.7-.3.5-.3.3-.3.2-.6.3-.7.1-.3.1-.3v-.8l-.1-.5-.2-.4-.3-.1z"/>
    <path id="m" d="M27.7 100.9c.4 0 .6.1.7.3l.1.7v.3l-.2.6-.4.5-.5.4-.4.2-.4-.1-.3-.1-.8.2c-.3.2-.5.4-.5.8l-.1.5-.1.4-.3 1-.2 1.1v.2l-.1.3-.1.3v.6l-.3 1.5v.6l-.1.8-.2.9-.1 1.1v.4c0 .2.1.2.2.2l.4-.1.4-.3.4-.3.4-.3.7-.6c.2-.2.4-.3.7-.3l.1.1-.1.5-.3.5-.4.5-.4.3-.6.6-.6.7-.4.4-.5.3-.7.3-.7.2-.3-.1-.1-.2V115l.1-.5.1-.5v-.5l.1-.8.1-1.3v-1.6l.1-.3.1-.3v-.7l.2-1 .1-1 .1-1 .3-1 .5-.9.6-1 .3-.4.4-.3.7-.7c.3-.2.6-.2.9-.2h1.4z"/>
    <path id="j" d="m200.1 103 .3.1.2.3v.3l-.1.4-.1.4v.3l.1.3.2.4.3-.2.5-.5.6-.7.6-.7.5-.5.3-.2.2.2.2.4.2.6v.7l-.2 1-.3 1.1-.3 1-.2.8-.1.3v.5l.2.1.2-.1.2-.1.2-.2.6-.4.3-.2.2.1.1.2-.1.2-.3.3-.3.3-.2.1-.1.3-.2.1-.5.6-.4.5-.4.4c-.2.1-.4.2-.6.1l-.3-.1-.2-.2-.2-.3-.1-.3-.1-.7.3-1.1.3-1.1.2-.8.1-.7v-.2c0-.3-.2-.5-.4-.5l-.7.2-.4.5-.3.6-.3.7-.1.2v.2l-.1.4-.1.4-.4 1.2-.3 1.1c.1.1.1.2 0 .2h-.5l-.4-.1-.3-.2-.2-.3.1-.6.2-.6.3-.5.1-.3v-.7l-.1-.3.1-.3.2-.3.2-.3.1-.2v-.3l-.1-.7v-.2l-.2-.1-.2.1-.3.1-.3.1-.2.1h-.1l-.1-.3.1-.3.9-1.1 1-.9.3-.2.7.1z"/>
    <path id="h" d="m187.3 101.1.2.1.3.2.2.2.1.3-.3.7-.3.6-.2.5-.2.3-.3.5-.3.5-.1.4.2.3.6-.4.8-.8.8-.8.7-.4c.2 0 .3.1.4.3l.2.6.1.7v.4l-.1.4-.1.6-.1.1v.1l.1.1-.2.6-.3.7-.3.7-.2.4-.4.6-.5.5-.6.5-.6.6-.6.4a2 2 0 0 0-.6.4l-.4.5-.1.7v.4l-.1.4-.1.4-.1.4v1.1l-.1.3-.1.2-.1.2v1.4c0 .3.1.4.2.4l.5.1h.3l.5.2.2.5-.1.2-.4.2-.6.2c-.2.1-.4.2-.7.1h-.5l-.8.1-.8.1h-.3l-.2.1-.2.1h-.2l-.2-.1-.2-.2-.1-.2v-.2l.1-.3.3-.1h.6l.2-.1.2-.1.1-.1.1-.2.1-.3.1-.4.1-.4.1-.2v-.2l.1-.4.1-.6.2-.9.1-.2.1-.2v-1.5l.2-.5.2-1.2.1-.5.1-.2.1-.3.1-.3.1-.3v-1.3l.1-.5.1-.4.1-.3v-1c0-.2-.1-.3-.3-.3h-.1l-.3.1-.3.3-.6.4h-.1v-.2l.2-.7.5-.6.7-1 .8-1 .8-1 .6-1.1.2-.1c.2-.3.3-.3.4-.3zm.7 4.8-.4.1-.8.6-.1.2a3 3 0 0 0-.4 1l-.4.9v.5l.1.3.4.2.3-.1.4-.3.5-.5.3-.2.3-.3.1-.3V107.4l-.1-.2V106.3l-.1-.3-.1-.1z"/>
    <path id="o" d="m155.4 7.2.3.1.3.2.3.3.1.3v.7l-.1.4v.4l.1.1.1.1h.1l.4-.3.4-.7.4-.7.4-.5.6-.1h.4c.2.1.4.3.4.6l.1.6-.2.7-.5.7-.2.1-.2.1H158l-.4.2-.4.4-.5.9-.2.9-.3.3-.3.4-.1.5-.1.5v.5l-.1.6-.1.6-.2.5-.3.2-.4.1-.5.1-.2-.1-.1-.1-.3-.5v-.4l.1-.6.1-.6.1-.3c.3-.4.4-.8.5-1.3l.3-1.3-.1-1.2-.2-.2h-.3l-.4.2-.2.2-.2.2-.4.1a.2.2 0 0 1-.2-.2l-.1-.3.1-.3.2-.3.4-.3.4-.3.4-.5.3-.5.4-.4c.4-.7.6-.8.7-.8z"/>
    <path id="g" d="M183.8 102.6c.2 0 .4.1.5.3l.2.5-.3.3-.7.3-.7.2-.5.2-.2.4-.1.4.1.4.2.4.3.6.3.6.2.8.1 1c0 .4-.1.7-.3 1l-.8.9-.6.4-.4.2-.3.1h-1.3l-.3.1-.4.1h-.5c-.2 0-.5-.1-.5-.4v-.1l.2-.4.4-.5.5-.5.5-.2.2.1.3.2.4.2.5.1.3-.1.3-.3.2-.3.1-.3c0-.3-.1-.5-.3-.8l-.5-.9-.5-.9-.2-.7v-.2l.2-.6.3-.6.4-.5.5-.3.3-.2.2-.3.3-.3.2-.2.5-.1h.5l.2-.1z"/>
    <path id="k" d="M8.3 105.4h.3l.3.1.2.1.1.3-.3.4-.5.7-.6.7-.3.5.1.2.2.1h1l.1-.1.2-.1.4.2.1.5v.5l-.2.3-.4.2-.5.1H7.4l-.3.1-.2.3V111.4l-.1.2-.1.3v.2l-.1.7-.2.4-.1.2-.1.4v.7l.1.3.2.2.3.1.4-.1.1-.1.2.1.2.2.1.3-.1.4-.3.5-.4.4-.3.2-.2.2-.1.3h-.2l-.2-.3-.4.1h-.4l-.1-.2-.2-.3-.2-.5-.2-.5-.1-.4v-1.2l.1-.6.1-.6v-.8l.3-.7.2-.6.1-.3v-.6l-.1-.3a.2.2 0 0 1-.2-.2l-.1-.2.1-.2.2-.2.2-.3.2-.3.2-.3.3-.2.5-.5c.2-.1.4-.3.5-.6l.2-.5.3-.4.4-.3.4-.1z"/>
    <path id="f" d="m55.9 9.9.2.5.1.4.1.4v.5l.1.8v.4l.1.2.1.3.1.2.2-.2.2-.2.3-.3.2-.3.2-.5c.2-.1.2-.2.2-.3v-1l-.1-.3-.2-.3-.2-.3-.1-.3v-.3l.1-.2.2-.2.2-.3.3-.6.6-.5.3.2.2.3.4.6.1.6v1.2l-.1.6-.3.7v.1l-.1.1-.1.2-.2.2-.1.2v.2l-.1.1-.2.2-.2.2-.1.3-.4.4-.3.3-.3.3-.3.4-.4.6a2 2 0 0 1-.4.6l-.4.4-.6.2H55l-.1-.3.1-.9-.1-.4v-2l-.1-.3-.1-.3v-.3l-.1-.3-.2-.6-.2-.6-.1-.4c0-.2-.1-.3-.3-.4l-.3.1h-.2l-.1.1-.2.1h-.3l-.2-.1-.1-.1.2-.5c.1-.2.2-.2.3-.2l.5-.5.6-.4.1-.1.3-.3.3-.2.3-.1.3.2.1.4V9l.5.9z"/>
    <path id="t" d="M122.4 191.4v-.2l.2-.5.5-.6.7-.7.6-.4.8-.3.8-.4.8-.6 2.7-2.4 1.9-1.7 9.4-8.3.6-.6.8-.8.8-.7.5-.5 2.4-2L156 162l1.4-1.2 6.9-6.1.7-.7.8-.9.5-1.1.9-1.2 1-.7h.6l.3.3.2.3.5.5c.2.1.3.3.3.6.1.2.4.3.7.4l.6.3c.1.1 0 .3-.2.6l-.7.7-1.1.8-.9.4-.8.3-.8.6-1.9 1.7-6.4 5.6-10.1 8.9-7.5 6.6-8.4 7.5-1.1.9-.9.7-.5.5-1.9 2-.7.9-.4.8c-.2.3-.6.9-1.3 1.6l-.5.4c-.3.2-.5.3-.6.2l-.3-.3-.2-.3-.1-.2v-.7l-.3-.3-.4-.2-.5-.1-.1-.1-.4-.6z"/>
    <polygon id="a" points="29.4 25.4 34.4 25.4 21.1 66.4 .6 3.6 4.7 .7 21.1 51"/>
    <mask id="c">
      <rect width="210" height="197" fill="#fff"/>
      <use stroke="#000" stroke-width="3.5" href="#b"/>
    </mask>
    <g id="b">
      <use href="#a" transform="translate(85 74)"/>
      <use href="#a" transform="rotate(-72 114.5 -17.2)"/>
      <use href="#a" transform="rotate(-144 75.5 27.4)"/>
      <use href="#a" transform="rotate(144 51.5 55)"/>
      <use href="#a" transform="rotate(72 12.5 99.7)"/>
    </g>
  </defs>
  <circle cx="106.1" cy="78.3" r="65.6" fill="none" stroke="#000" stroke-width="5.5" mask="url(#c)"/>
  <use href="#b"/>
  <use href="#d"/>
  <use href="#e"/>
  <use href="#f"/>
  <use href="#g"/>
  <use href="#h"/>
  <use href="#i"/>
  <use href="#j"/>
  <use href="#k"/>
  <use href="#i" transform="translate(-181.7 5.4)"/>
  <use href="#l"/>
  <use href="#m"/>
  <use href="#n"/>
  <use href="#o"/>
  <use href="#p"/>
  <use href="#m" transform="translate(143.9 -100.8)"/>
  <use href="#n" transform="translate(143.8 -100.9)"/>
  <use href="#q"/>
  <use href="#r"/>
  <use href="#s"/>
  <use href="#q" transform="translate(66.5)"/>
  <g transform="scale(1.7)">
    <use href="#n" transform="translate(55 -9)"/>
    <use href="#m" transform="translate(65.6 -8.8)"/>
    <use href="#m" transform="translate(71 -8.8)"/>
  </g>
  <g transform="rotate(-20 262 122.2)">
    <use href="#q" transform="matrix(.62 0 0 .62 95.5 -2)"/>
    <use href="#n" transform="translate(114 -5.5)"/>
    <use href="#i" transform="translate(-44.6)"/>
    <use href="#f" transform="translate(100.5 95)"/>
    <use href="#n" transform="translate(134 -6)"/>
    <use href="#j" transform="translate(-30.5 -.5)"/>
  </g>
  <use href="#t"/>
</svg>