<svg xmlns="http://www.w3.org/2000/svg" viewBox="0 0 499.4 502.2"><path d="M270.5 170.1l-14.8-10.7 126.8-92.1-74.2 228.2h-18.2l59.3-182.7z"/><path d="M332.2 245.3l5.6-17.4L464.6 320H224.7l-5.7-17.4h192.1z"/><path d="M279.7 327.2H298l-48.4 149L175.5 248l14.8-10.7 59.3 182.6z"/><path d="M185.6 302.6l5.7 17.4H34.6l194.1-141 14.8 10.8L88.1 302.6z"/><path d="M179.9 205.6l-14.8 10.7-48.4-149 194.1 141-5.6 17.4-155.4-112.9zM256.7 478l-7.1 20.9c110.5 0 204.2-72.2 236.5-171.9l-22.1.3C433.3 413.2 352.4 475.1 256.7 478zM249.6 1.8c-54.6 0-105 17.6-146 47.4l18 12.8c36.5-24.8 80.5-39.3 128-39.3 47.4 0 91.5 14.5 127.9 39.3l18-12.7-6.5 21c53.8 41.7 88.4 106.8 88.4 180.1 0 22-3.1 43.3-9 63.4l17.7 13.2c7.8-24.1 12-49.9 12-76.6.1-137.3-111.2-248.6-248.5-248.6zM21.9 250.4c0-73.2 34.6-138.4 88.3-180l-6.6-21.1C41.5 94.4 1.1 167.7 1.1 250.4c0 26.7 4.2 52.5 12 76.6l17.7-13.2c-5.8-20.2-8.9-41.4-8.9-63.4zm13.3 76.9l-22.1-.3c32.3 99.8 126 172 236.5 172l-7.1-20.9c-95.7-3-176.5-65-207.3-150.8z"/></svg>
