<svg xmlns="http://www.w3.org/2000/svg" width="300" height="75.5" viewBox="0 0 300 75.5"><path d="M31.6 52.2l-2.4 6.4c2 .7 3.4 2.7 3.4 4.8 0 2.8-2.3 5.1-5.1 5.1s-5.1-2.3-5.1-5.1c0-2.1 1.3-4.1 3.4-4.8l-2.4-6.4c-4.7 1.7-7.8 6.3-7.8 11.3 0 6.6 5.4 12 12 12s12-5.4 12-12c-.1-5-3.3-9.5-8-11.3m13-24.7h-6.9c0 5.7-4.6 10.3-10.3 10.3-5.7 0-10.3-4.6-10.3-10.3h-6.9c0 5.7-4.6 10.3-10.3 10.3v6.9c5.6 0 10.6-2.7 13.7-6.9 3.1 4.2 8.1 6.9 13.7 6.9S37.9 42 41 37.8c3.1 4.2 8.1 6.9 13.7 6.9v-6.9c-5.5-.1-10.1-4.7-10.1-10.3m0-10.3l8.8-11.7-5.5-4.1-6.7 8.9H30.9V0H24v10.3H13.7L7 1.4 1.5 5.5l8.8 11.7zm52.7 18.6H83.8V17.4h4.5v14.4h9zm16.8-5.8H104c.4 1.6 1.5 2.7 3 2.7 1 0 2.2-.2 2.9-1.6l3.9.8c-1.2 2.9-3.7 4.3-6.8 4.3-4 0-7.3-2.9-7.3-7.3 0-4.3 3.3-7.3 7.3-7.3 3.9 0 7 2.8 7.1 7.3V30zM104 27.3h5.7c-.4-1.5-1.5-2.2-2.8-2.2-1.2.1-2.4.8-2.9 2.2m18-9.4c0 1.4-1.1 2.4-2.6 2.4s-2.5-1-2.5-2.4c0-1.3 1-2.5 2.5-2.5s2.6 1.2 2.6 2.5m-4.7 4.1h4.4v13.8h-4.4V22zm22.9 13.8h-4.4v-1.1c-1.1 1-2.5 1.5-4.3 1.5-3.6 0-6.7-2.9-6.7-7.3 0-4.3 3.1-7.3 6.7-7.3 1.8 0 3.2.5 4.3 1.5V16h4.4v19.8zm-4.4-6.9c0-2.1-1.6-3.6-3.4-3.6-1.9 0-3.3 1.5-3.3 3.6s1.4 3.6 3.3 3.6c1.8 0 3.4-1.5 3.4-3.6m11.7 2.4c.2 1.2 1.3 1.6 2.4 1.6 1.2 0 1.8-.5 1.8-1.1 0-.5-.4-.8-1.4-1l-2.8-.5c-2.6-.5-4-1.8-4-4 0-2.8 2.4-4.7 5.9-4.7 3.4 0 5.7 1.6 6.3 4l-4 .8c-.1-.9-1-1.6-2.3-1.6-1.2 0-1.6.6-1.6 1.1 0 .4.2.8 1 1l3.2.7c2.6.5 3.8 2.1 3.8 4.1 0 3-2.6 4.6-6.3 4.6-3.2 0-6-1.2-6.5-4l4.5-1zm21-1.4l4 .9c-.7 3.3-3.6 5.4-7 5.4-4.1 0-7.5-2.9-7.5-7.3 0-4.3 3.4-7.3 7.5-7.3 3.3 0 6.3 2.1 7 5.3l-4.1 1c-.4-1.7-1.5-2.4-2.9-2.4-2 0-3.3 1.5-3.3 3.5s1.3 3.5 3.3 3.5c1.4-.1 2.6-.9 3-2.6m21-2.6v8.5h-4.4v-7.5c0-1.6-1-2.7-2.4-2.7-1.7 0-2.8 1.2-2.8 3.8v6.4h-4.4V16h4.4v7.3c1.1-1.1 2.5-1.7 4.3-1.7 3.2 0 5.3 2.3 5.3 5.7m17.2 2.7h-10.1c.4 1.6 1.5 2.7 3 2.7 1 0 2.2-.2 2.9-1.6l3.9.8c-1.2 2.9-3.7 4.3-6.8 4.3-4 0-7.3-2.9-7.3-7.3 0-4.3 3.3-7.3 7.3-7.3 3.9 0 7 2.8 7.1 7.3V30zm-10-2.7h5.7c-.4-1.5-1.5-2.2-2.8-2.2-1.2.1-2.5.8-2.9 2.2m27 0v8.5h-4.4v-7.5c0-1.6-1-2.7-2.4-2.7-1.7 0-2.9 1.2-2.9 3.8v6.4h-4.4V22h4.4v1.3c1-1.1 2.5-1.7 4.2-1.7 3.3 0 5.5 2.3 5.5 5.7m18.1 8.5h-4.4v-1.1c-1.1 1-2.5 1.5-4.3 1.5-3.6 0-6.7-2.9-6.7-7.3 0-4.3 3.1-7.3 6.7-7.3 1.8 0 3.2.5 4.3 1.5V16h4.4v19.8zm-4.4-6.9c0-2.1-1.6-3.6-3.4-3.6-1.9 0-3.3 1.5-3.3 3.6s1.4 3.6 3.3 3.6c1.8 0 3.4-1.5 3.4-3.6m22.8 6.9h-4.4v-1.1c-1.1 1-2.5 1.5-4.3 1.5-3.6 0-6.7-2.9-6.7-7.3 0-4.3 3.1-7.3 6.7-7.3 1.8 0 3.2.5 4.3 1.5V22h4.4v13.8zm-4.4-6.9c0-2.1-1.6-3.6-3.4-3.6-1.9 0-3.3 1.5-3.3 3.6s1.4 3.6 3.3 3.6c1.8 0 3.4-1.5 3.4-3.6m31.4-1.7v8.6h-4.4v-7.7c0-1.6-1-2.6-2.3-2.6-1.6 0-2.7 1.2-2.7 3.5v6.8h-4.4v-7.7c0-1.6-1-2.6-2.3-2.6-1.6 0-2.6 1.2-2.6 3.5v6.8h-4.4V22h4.4v1.3c.9-1 2.3-1.7 4.1-1.7 1.9 0 3.6.8 4.5 2.3 1.1-1.4 2.7-2.3 4.9-2.3 2.8 0 5.2 2.2 5.2 5.6m3.7-.5h9.1v3.7h-9.1zM94.5 63h-4.3l-7.8-18.4h5l5 12.2 5-12.2h5zm22.8-6.9c0 4.4-3.5 7.3-7.5 7.3-4.2 0-7.6-2.9-7.6-7.3 0-4.3 3.5-7.2 7.6-7.2 4 0 7.5 2.9 7.5 7.2m-4.2 0c0-2.1-1.6-3.6-3.3-3.6-1.8 0-3.4 1.4-3.4 3.6s1.6 3.6 3.4 3.6c1.6 0 3.3-1.4 3.3-3.6m21.4 0c0 4.4-3.5 7.3-7.5 7.3-4.2 0-7.6-2.9-7.6-7.3 0-4.3 3.5-7.2 7.6-7.2s7.5 2.9 7.5 7.2m-4.2 0c0-2.1-1.6-3.6-3.3-3.6-1.8 0-3.4 1.4-3.4 3.6s1.6 3.6 3.4 3.6c1.7 0 3.3-1.4 3.3-3.6m17.3-7l-.2 4.4h-.8c-3.1 0-4.7 1.6-4.7 5.2V63h-4.4V49.2h4.4v2.6c1-1.6 2.5-2.8 4.7-2.8.4 0 .7.1 1 .1m18 7c0 4.4-3.1 7.3-6.7 7.3-1.8 0-3.2-.5-4.3-1.5V63h-4.4V43.2h4.4v7.1c1.1-1 2.5-1.5 4.3-1.5 3.6 0 6.7 3 6.7 7.3m-4.3 0c0-2.1-1.4-3.6-3.3-3.6-1.8 0-3.4 1.5-3.4 3.6s1.6 3.6 3.4 3.6c1.9 0 3.3-1.4 3.3-3.6m21 6.9h-4.4v-1.3c-1 1.1-2.5 1.7-4.2 1.7-3.2 0-5.4-2.3-5.4-5.7v-8.5h4.4v7.5c0 1.6 1 2.7 2.4 2.7 1.7 0 2.9-1.2 2.9-3.8v-6.4h4.4V63zm14-13.9l-.2 4.4h-.8c-3.1 0-4.7 1.6-4.7 5.2V63h-4.4V49.2h4.4v2.6c1-1.6 2.5-2.8 4.7-2.8.4 0 .7.1 1 .1M213 61.6c0 4.3-3.2 6.6-7.7 6.6-3.2 0-5.6-1.1-6.9-3.3l3.6-2c1 1.2 1.8 1.7 3.2 1.7 2 0 3.4-1.2 3.4-3.3v-.4c-1 .9-2.4 1.3-4.1 1.3-3.6 0-6.6-2.9-6.6-6.8 0-3.8 3-6.6 6.6-6.6 1.8 0 3.2.5 4.1 1.3v-.9h4.3v12.4zm-4.3-6.1c0-1.8-1.5-3.1-3.2-3.1-1.9 0-3.3 1.3-3.3 3.1s1.4 3.2 3.3 3.2c1.7-.1 3.2-1.4 3.2-3.2" fill="#cca169"/></svg>